<?xml version="1.0" encoding="UTF-8" standalone="no"?>
<!-- Created with Inkscape (http://www.inkscape.org/) -->

<svg
   width="73.678093mm"
   height="60.708691mm"
   viewBox="0 0 73.678093 60.708691"
   version="1.1"
   id="svg1"
   inkscape:version="1.3.2 (091e20e, 2023-11-25, custom)"
   sodipodi:docname="cell3.svg"
   xmlns:inkscape="http://www.inkscape.org/namespaces/inkscape"
   xmlns:sodipodi="http://sodipodi.sourceforge.net/DTD/sodipodi-0.dtd"
   xmlns="http://www.w3.org/2000/svg"
   xmlns:svg="http://www.w3.org/2000/svg">
  <sodipodi:namedview
     id="namedview1"
     pagecolor="#ffffff"
     bordercolor="#000000"
     borderopacity="0.25"
     inkscape:showpageshadow="2"
     inkscape:pageopacity="0.0"
     inkscape:pagecheckerboard="0"
     inkscape:deskcolor="#d1d1d1"
     inkscape:document-units="mm"
     inkscape:zoom="2.280081"
     inkscape:cx="135.30221"
     inkscape:cy="120.82904"
     inkscape:window-width="1920"
     inkscape:window-height="1094"
     inkscape:window-x="-11"
     inkscape:window-y="-11"
     inkscape:window-maximized="1"
     inkscape:current-layer="layer1-5" />
  <defs
     id="defs1">
    <inkscape:path-effect
       effect="bspline"
       id="path-effect1"
       is_visible="true"
       lpeversion="1.3"
       weight="33.333333"
       steps="2"
       helper_size="0"
       apply_no_weight="true"
       apply_with_weight="true"
       only_selected="false"
       uniform="false" />
    <inkscape:path-effect
       effect="bspline"
       id="path-effect7"
       is_visible="true"
       lpeversion="1.3"
       weight="33.333333"
       steps="2"
       helper_size="0"
       apply_no_weight="true"
       apply_with_weight="true"
       only_selected="false"
       uniform="false" />
  </defs>
  <g
     inkscape:label="Layer 1"
     inkscape:groupmode="layer"
     id="layer1">
    <g
       inkscape:label="blue cell1"
       inkscape:groupmode="layer"
       id="layer1-5"
       transform="matrix(0.26458333,0,0,0.26458333,1.6519994,-117.005)">
      <path
         style="fill:#ddeaae;fill-opacity:1;stroke:#c8d982;stroke-width:9.82677;stroke-linecap:square;stroke-linejoin:round;stroke-dasharray:none;stroke-opacity:1"
         d="m 88.272743,469.13021 c -2.34717,8.35821 3.26314,23.70069 -2.86258,22.15481 -6.125719,-1.54588 -23.9864,-19.97902 -37.78345,-27.36416 -13.79705,-7.38514 -23.528834,-3.72142 -23.013592,8.47266 0.515241,12.19407 11.277664,32.91746 11.850047,43.3366 0.572384,10.41915 -9.044902,10.53363 -17.403285,10.81988 -8.358382,0.28625 -15.4568591,0.74421 -18.14756956,4.35091 -2.69071054,3.6067 -0.97333533,10.36171 4.80883176,16.37287 5.7821668,6.01116 15.6284398,11.27777 23.6433258,15.80045 8.014886,4.52269 14.197426,8.30091 10.533477,11.56411 -3.663948,3.26321 -17.173948,6.011 -25.990321,14.42663 -8.8163725,8.41563 -12.93806968,22.4981 -4.0644441,27.19253 8.8736261,4.69443 30.7415141,2.7e-4 42.1340971,-0.45772 11.392584,-0.45799 12.308515,3.32023 11.106283,7.95741 -1.202233,4.63719 -4.522487,10.13278 -3.835496,17.28893 0.686991,7.15615 5.381235,15.97217 17.80426,14.54085 12.423026,-1.43131 32.573533,-13.10945 47.916323,-14.02543 15.34278,-0.91599 25.87599,8.93027 37.38308,15.51393 11.50709,6.58366 23.98667,9.90392 28.28036,2.80502 4.29368,-7.0989 0.40097,-24.6161 10.82032,-27.70756 10.41936,-3.09146 35.14951,8.2432 44.30939,5.09449 9.15987,-3.1487 2.74835,-20.78039 -6.46877,-35.32168 -9.21712,-14.54129 -21.23897,-25.99068 -16.71617,-33.83371 4.52281,-7.84302 25.58925,-12.07921 34.17663,-22.15506 8.58738,-10.07586 4.69466,-25.99018 -8.81614,-28.90989 -13.51081,-2.9197 -36.63856,7.15575 -40.41677,0.68649 -3.77822,-6.46926 11.79293,-29.48251 12.70876,-42.4206 0.91584,-12.93809 -12.82342,-15.80043 -24.55937,-6.29704 -11.73594,9.5034 -21.46791,31.37171 -26.50574,33.9477 -5.03783,2.576 -5.38131,-14.13975 -8.75901,-21.1814 -3.37771,-7.04165 -9.78923,-4.40835 -14.54091,-1.7e-4 -4.75169,4.40819 -7.84296,10.59073 -13.33888,6.92679 -5.49592,-3.66395 -13.39584,-17.17395 -22.49845,-23.24237 -9.10262,-6.06841 -19.407067,-4.69448 -21.754237,3.66373 z"
         id="path1"
         inkscape:path-effect="#path-effect1"
         inkscape:original-d="m 80.315266,462.14595 c 5.610308,15.34247 11.220617,30.68495 16.830927,46.02743 C 79.284444,489.73914 61.423766,471.306 43.562021,452.87177 c -9.73236,3.66394 -19.464143,7.32767 -29.196503,10.99162 10.762845,20.7242 21.525265,41.44759 32.287898,62.17138 -9.617864,0.1145 -19.23515,0.22899 -28.853014,0.34348 -7.098901,0.458 -14.1973777,0.91597 -21.2962735,1.37396 1.7174748,6.7554 3.43484849,13.51041 5.1523241,20.26581 9.8468604,5.26692 19.6931314,10.53353 29.5399914,15.80045 6.182912,3.77845 12.365453,7.55667 18.548366,11.33512 -13.51081,2.74796 -27.02081,5.49575 -40.5316153,8.24371 -4.1219406,14.0833 -8.24363604,28.16577 -12.3655777,42.24907 21.869191,-4.69444 43.737081,-9.38859 65.606259,-14.08303 0.915987,3.77845 1.831919,7.55667 2.747907,11.33512 -3.320453,5.49592 -6.640707,10.99151 -9.96116,16.48743 4.694433,8.81638 9.388679,17.6324 14.083019,26.4486 20.151711,-11.67883 40.302218,-23.35697 60.453938,-35.0358 10.53385,9.84686 21.06706,19.69312 31.60091,29.53999 12.48033,3.32045 24.95991,6.6407 37.44023,9.96116 -3.89295,-17.51825 -7.78566,-35.03545 -11.67861,-52.55371 24.73166,11.33534 49.46181,22.67 74.19347,34.00534 -6.41191,-17.63275 -12.82343,-35.26444 -19.23534,-52.89719 -12.02233,-11.44983 -24.04418,-22.89922 -36.06627,-34.34883 21.0677,-4.23644 42.13414,-8.47263 63.20184,-12.70907 -3.89294,-15.91527 -7.78566,-31.82959 -11.6786,-47.74486 -23.12867,10.07586 -46.25642,20.15131 -69.38463,30.22697 15.57178,-23.01418 31.14293,-46.02743 46.7144,-69.04115 -13.7398,-2.86246 -27.47906,-5.7248 -41.21859,-8.5872 -9.73236,21.86919 -19.46433,43.7375 -29.1965,65.60626 -0.34349,-16.71677 -0.68697,-33.43252 -1.03046,-50.14929 -6.41192,2.63346 -12.82344,5.26677 -19.23535,7.90023 -3.09146,6.18291 -6.18273,12.36545 -9.27419,18.54837 -7.90038,-13.51081 -15.8003,-27.02081 -23.70068,-40.53162 -10.30485,1.37398 -20.609297,2.74791 -30.913944,4.12186 z"
         sodipodi:nodetypes="cccccccccccccccccccccccccccccccccc"
         transform="rotate(175.44083,131.39149,559.1072)"
         inkscape:label="cell" />
      <g
         id="g31"
         inkscape:label="eye"
         transform="rotate(12.566589,130.77164,519.04994)"
         inkscape:transform-center-x="0.69892798"
         inkscape:transform-center-y="4.8924959"
         style="display:inline">
        <path
           style="fill:#f6f6f6;fill-opacity:1;fill-rule:nonzero;stroke:#74ebeb;stroke-width:0;stroke-linecap:square;stroke-linejoin:round;stroke-dasharray:none;stroke-opacity:1"
           id="path24-3"
           d="m 144.73628,513.00876 c -3.75899,0.25278 -6.99954,2.57709 -9.3145,5.95322 -0.50833,0.74133 -0.91526,1.56883 -1.3729,2.35326 -1.93558,3.91187 -2.81538,8.34495 -2.61124,12.84634 0.0382,0.84206 0.15193,1.6772 0.22787,2.5158 0.63718,4.44864 2.13739,8.69261 4.65416,12.16727 0.52238,0.7212 1.12716,1.35653 1.69073,2.03483 2.92965,3.05792 6.51402,4.71096 10.47019,4.6031 0.65291,-0.0172 1.30076,-0.13768 1.95115,-0.20629 2.6781,-0.55072 5.21889,-1.51019 7.31684,-3.61338 1.5082,-1.51193 1.84811,-2.49368 2.84583,-4.4102 1.7324,-4.32303 2.0306,-8.4839 1.76945,-13.16978 -0.32925,-4.07157 -1.4491,-7.93057 -2.93643,-11.61093 -1.28162,-3.17677 -3.11709,-5.68967 -5.42979,-7.90909 -1.96418,-1.71281 -4.26814,-2.95151 -6.75558,-3.1074 -0.55169,-0.0346 -1.10483,0.0208 -1.65724,0.0334 -4.61316,0.82426 -6.72715,4.05789 -8.60749,8.6354 -1.40124,3.68891 -1.48851,7.63263 -1.15787,11.57143 0.34175,3.60989 1.18273,7.09926 2.37171,10.44843 1.63577,3.82056 4.40214,6.9755 8.24648,7.39388 0.82566,0.0897 1.65581,-0.11114 2.48372,-0.1667 0.8613,-0.39346 1.77813,-0.65214 2.58391,-1.18042 2.69976,-1.77 3.88316,-5.10612 4.69158,-8.35729 0.69537,-3.16464 0.74724,-5.94103 0.2159,-9.13281 -0.50246,-2.06979 -1.22429,-4.1434 -2.51379,-5.73767 -0.29264,-0.36178 -0.62692,-0.67514 -0.94038,-1.01269 -2.21275,-1.90869 -4.78493,-2.34424 -7.40178,-0.9908 -1.70989,0.88435 -2.08578,1.96925 -3.00125,3.58536 -0.86433,3.00696 -0.45925,1.14059 -0.72828,3.86023 -0.0563,10.53859 12.80714,10.63082 12.86342,0.092 v 0 c -0.0645,0.5231 -0.15428,1.04283 -0.19339,1.56929 -0.0175,0.23519 0.0847,-0.46167 0.12823,-0.6922 0.006,-0.0346 -0.0113,0.0697 -0.0172,0.10464 -0.0264,0.15142 -0.0543,0.30344 -0.0988,0.44908 -0.11176,0.36554 -0.24284,0.72273 -0.36427,1.0841 -0.86261,1.48033 -1.2231,2.47474 -2.82059,3.2694 -2.23628,1.11239 -4.57356,0.95795 -6.46686,-0.75383 -0.1106,-0.12851 -1.31117,-1.47202 -1.00453,-1.60594 0.0266,-0.0393 0.074,-0.16822 0.0798,-0.11838 0.0794,0.68429 -0.0499,1.42695 -0.14371,2.09725 -0.0444,0.22893 -0.15714,0.4561 -0.12795,0.68834 0.003,0.0267 0.0475,-0.0153 0.0645,-0.0342 0.19756,-0.22267 0.35937,-0.48974 0.57592,-0.68718 0.97596,-0.88983 1.16067,-0.76581 2.46278,-1.18936 1.19336,0.067 2.15678,0.0808 3.07275,1.11537 0.16196,0.18312 0.5663,0.66178 0.34067,0.67988 -0.0672,0.006 -0.0987,-0.10636 -0.14805,-0.15945 -0.7707,-1.94122 -1.15936,-4.05142 -1.41557,-6.15944 -0.12879,-1.27725 -0.29305,-2.61461 0.0723,-3.85883 0.0886,-0.26798 0.21636,-0.52475 0.25596,-0.80793 0.004,-0.0298 -0.007,-0.094 -0.0301,-0.0812 -0.90893,0.50227 -1.35747,0.98131 -2.41958,0.94937 -0.15827,-0.0208 -0.31842,-0.0298 -0.47486,-0.0638 -0.31615,-0.0708 -0.77954,-0.60648 -0.0773,-0.11056 0.84378,0.69573 1.43197,1.59831 1.87135,2.69504 0.84662,2.00181 1.48944,4.10762 1.72501,6.33261 0.14363,1.65681 0.0939,3.27727 -0.23561,4.90696 0.14348,0.21255 0.80364,-0.24382 0.93089,-0.25545 0.12298,-0.0115 -0.21037,0.15104 -0.32293,0.20955 -0.1971,0.10254 -0.70583,0.30495 -0.93462,0.39807 -0.97226,0.23995 -0.94246,0.57049 -1.88846,-0.15085 -0.41648,-0.42269 -0.82117,-0.78855 -1.15639,-1.30757 -0.77615,-1.20169 -1.21435,-2.68149 -1.49438,-4.12821 -0.26661,-1.87645 -0.2887,-3.79913 0.45483,-5.54444 0.15261,-0.34872 0.32423,-0.68758 0.45303,-1.04897 0.0226,-0.0638 0.0264,-0.135 0.0463,-0.20002 0.0156,-0.051 0.10444,-0.13119 0.0597,-0.14665 -0.19298,-0.0674 -0.41178,0.0724 -0.6041,-0.0298 9.09566,-0.0894 8.98666,-14.99288 -0.10901,-14.90358 z"
           inkscape:label="white" />
        <path
           style="display:inline;fill:#000001;fill-opacity:1;fill-rule:nonzero;stroke:#84eb8b;stroke-width:0;stroke-linecap:square;stroke-linejoin:round;stroke-dasharray:none;stroke-opacity:1"
           id="path26-9"
           d="m 141.79095,511.78603 c -1.42177,0.88918 -2.77504,1.93607 -4.02127,3.12888 -0.28626,0.27394 -0.55863,0.5669 -0.83795,0.8503 -0.85427,0.94158 -1.68658,1.92001 -2.38464,3.02476 -0.33397,0.52853 -0.52148,0.88848 -0.82063,1.43345 -0.64048,1.12968 -1.17468,2.32756 -1.67446,3.54662 -0.31094,0.81334 -0.60769,1.63716 -0.84276,2.48485 -0.14994,0.54065 -0.19013,0.75227 -0.31215,1.29819 -0.25953,1.14208 -0.38066,2.31368 -0.44979,3.48911 -0.0364,1.23011 0.0332,2.45918 0.13981,3.6823 0.0728,0.99088 0.22136,1.96819 0.39704,2.94037 0.15874,0.92048 0.36611,1.82698 0.59721,2.72611 0.24297,0.95428 0.54107,1.88677 0.87286,2.80385 0.35197,1.00782 0.82157,1.94311 1.3238,2.85792 0.45024,0.83818 0.9375,1.64687 1.45004,2.4351 0.52507,0.77742 1.08879,1.51869 1.64747,2.26366 0.38404,0.50692 0.78859,0.99109 1.24238,1.41495 0.19463,0.18178 0.54532,0.47636 0.74681,0.64789 0.76659,0.64463 1.57941,1.21088 2.40356,1.75003 0.66535,0.45076 1.39314,0.7431 2.12919,0.99329 0.8638,0.26529 1.75471,0.36697 2.64213,0.4582 0.75225,0.0903 1.50811,0.0899 2.26254,0.0498 0.58713,-0.0393 1.17291,-0.0989 1.75735,-0.17415 0.5425,-0.0493 1.07686,-0.17166 1.6015,-0.33534 0.49995,-0.169 0.97342,-0.4157 1.43212,-0.69823 0.40641,-0.25546 0.81619,-0.50305 1.21562,-0.77305 0.37432,-0.24652 0.75634,-0.47728 1.13752,-0.70923 0.31366,-0.17014 0.63527,-0.32003 0.95483,-0.47472 0.48565,-0.23877 0.93816,-0.55447 1.36432,-0.91254 0.44578,-0.40924 0.79363,-0.9305 1.14134,-1.44582 0.23209,-0.31581 0.48038,-0.61476 0.71384,-0.92955 0.3323,-0.43004 0.58519,-0.92565 0.81611,-1.43394 0.23754,-0.58773 0.45397,-1.18783 0.6494,-1.79607 0.18868,-0.58585 0.35317,-1.1815 0.52633,-1.77362 0.20209,-0.637 0.38864,-1.28014 0.5595,-1.92924 0.18196,-0.68711 0.31829,-1.38802 0.43284,-2.09383 0.0956,-0.64453 0.21014,-1.28496 0.31881,-1.92665 0.13854,-0.79123 0.19838,-1.59578 0.23026,-2.40096 0.038,-1.03748 -0.0193,-2.07224 -0.14868,-3.09845 -0.14016,-0.9962 -0.29984,-1.98754 -0.50602,-2.96832 -0.20759,-1.05736 -0.48613,-2.09157 -0.77683,-3.12131 -0.31798,-1.24356 -0.7655,-2.42855 -1.22652,-3.60732 -0.47071,-1.20576 -0.95716,-2.40306 -1.48479,-3.57682 -0.30542,-0.66288 -0.60641,-1.3326 -0.98173,-1.94748 -0.22074,-0.36161 -0.40542,-0.6146 -0.64425,-0.95577 -0.38855,-0.52624 -0.73644,-1.09409 -1.14313,-1.6025 -0.32336,-0.40426 -0.39647,-0.46133 -0.74974,-0.8234 -0.64884,-0.61749 -1.3604,-1.13676 -2.0702,-1.65319 -0.49918,-0.36959 -0.99942,-0.73795 -1.53918,-1.02438 -0.36214,-0.19226 -0.5496,-0.26232 -0.91996,-0.41917 -0.77252,-0.3136 -1.57964,-0.47022 -2.38856,-0.59017 -0.5827,-0.0834 -1.16668,-0.15391 -1.75089,-0.22118 -0.69594,-0.0894 -1.39323,-0.0409 -2.0858,0.0563 -0.60753,0.0844 -1.20114,0.25099 -1.77913,0.48032 -0.42411,0.19137 -0.85134,0.41705 -1.20185,0.76143 -0.12444,0.12221 -0.23417,0.2635 -0.35127,0.39504 -1.24687,1.53479 0.62651,3.57785 1.87338,2.04306 v 0 c -0.002,-0.01 -0.0123,-0.0208 -0.006,-0.0298 0.14441,-0.17204 0.34679,-0.26351 0.53248,-0.35505 0.40343,-0.16785 0.8225,-0.27363 1.24762,-0.3368 0.50327,-0.0737 1.00957,-0.11572 1.51586,-0.0487 0.56095,0.0647 1.12168,0.13213 1.6812,0.21193 0.62072,0.0909 1.24168,0.20092 1.83628,0.43549 0.26535,0.11036 0.41217,0.16479 0.66878,0.29568 0.45957,0.2343 0.87489,0.56287 1.29937,0.86999 0.59533,0.43291 1.1932,0.8656 1.74456,1.37248 0.2041,0.20331 0.31219,0.2996 0.49625,0.52788 0.39105,0.48498 0.72034,1.03282 1.09414,1.53479 0.13247,0.18809 0.36918,0.5179 0.49518,0.72076 0.32746,0.52716 0.58011,1.10983 0.84552,1.67976 0.50659,1.12481 0.97088,2.27386 1.42284,3.42934 0.21878,0.5593 0.44853,1.11647 0.64186,1.68862 0.10324,0.30552 0.23679,0.76598 0.32691,1.07518 0.0524,0.17969 0.10388,0.35993 0.15587,0.53992 0.27041,0.95756 0.5312,1.91859 0.7229,2.90233 0.18891,0.89163 0.33093,1.79385 0.46047,2.69944 0.11026,0.83671 0.1511,1.68157 0.12314,2.528 -0.0239,0.65679 -0.0722,1.3132 -0.18462,1.9586 -0.11004,0.65003 -0.22607,1.29877 -0.32296,1.9517 -0.0962,0.5981 -0.21119,1.192 -0.36521,1.77415 -0.16269,0.61986 -0.3429,1.23302 -0.53512,1.84147 -0.16556,0.56655 -0.32287,1.13648 -0.50299,1.69721 -0.15457,0.49053 -0.33469,0.97031 -0.51615,1.44817 -0.13813,0.30959 -0.2842,0.6148 -0.48866,0.87375 -0.25826,0.34961 -0.53902,0.67572 -0.78802,1.03446 -0.20484,0.30359 -0.40425,0.6135 -0.64267,0.88372 -0.25372,0.22624 -0.53665,0.40718 -0.82778,0.56 -0.38971,0.18866 -0.78254,0.37031 -1.16131,0.58738 -0.41484,0.25338 -0.83141,0.50348 -1.23818,0.774 -0.37076,0.25189 -0.75334,0.47862 -1.13032,0.71773 -0.28948,0.18083 -0.5871,0.34043 -0.90236,0.45299 -0.39196,0.1308 -0.79638,0.20776 -1.2027,0.2465 -0.52989,0.0685 -1.06097,0.12259 -1.59325,0.15925 -0.63852,0.0355 -1.27823,0.0367 -1.9149,-0.0414 -0.72085,-0.0737 -1.44505,-0.14914 -2.14941,-0.35087 -0.54741,-0.18294 -1.09116,-0.39124 -1.58495,-0.72783 -0.73504,-0.47963 -1.46019,-0.98327 -2.14447,-1.55616 -0.28733,-0.24441 -0.58735,-0.48016 -0.85428,-0.75509 -0.15334,-0.15792 -0.33106,-0.37543 -0.46949,-0.54755 -0.083,-0.10312 -0.16419,-0.20866 -0.24626,-0.31284 -0.51972,-0.69292 -1.04411,-1.38235 -1.53519,-2.10302 -0.47226,-0.72511 -0.92018,-1.46984 -1.33423,-2.24166 -0.42516,-0.77257 -0.82707,-1.55803 -1.12203,-2.41156 -0.29729,-0.81736 -0.56203,-1.64954 -0.77916,-2.50054 -0.21112,-0.8199 -0.40066,-1.64637 -0.54473,-2.48606 -0.15744,-0.86963 -0.29239,-1.74309 -0.35548,-2.62989 -0.0931,-1.05724 -0.1549,-2.11908 -0.13239,-3.18258 0.0559,-0.99195 0.15558,-1.9808 0.37425,-2.94463 0.0913,-0.41341 0.14011,-0.66013 0.25167,-1.0657 0.20481,-0.74461 0.46517,-1.46772 0.73604,-2.18262 0.45416,-1.10979 0.93785,-2.20082 1.52261,-3.22777 0.24596,-0.45048 0.41628,-0.77696 0.68664,-1.21168 0.59385,-0.95485 1.31673,-1.78904 2.04493,-2.60471 0.24158,-0.2471 0.47687,-0.50288 0.72477,-0.74153 1.15411,-1.11092 2.41126,-2.07984 3.73236,-2.90175 1.57126,-1.06226 0.27464,-3.63687 -1.29662,-2.57459 z"
           inkscape:label="outline" />
        <path
           style="fill:#000001;fill-opacity:1;fill-rule:nonzero;stroke:#84eb8b;stroke-width:0;stroke-linecap:square;stroke-linejoin:round;stroke-dasharray:none;stroke-opacity:1"
           id="path27-3"
           d="m 146.74602,526.29203 c -1.30726,-0.57062 -2.6362,-0.2656 -3.75682,0.71234 -0.28123,0.24533 -0.51086,0.56704 -0.7663,0.85053 -1.10256,1.51684 -1.79791,3.37569 -2.05042,5.36893 -0.0496,0.39177 -0.0643,0.78866 -0.0964,1.18305 0.001,1.79851 0.31821,3.55407 1.00483,5.15632 0.4172,0.9736 0.63482,1.24962 1.17179,2.11108 0.31136,0.34881 0.60071,0.72872 0.93408,1.04665 1.01242,0.96555 2.21708,1.53806 3.48672,1.77871 1.05308,0.19972 1.30306,0.1035 2.34856,0.004 1.38376,-0.29212 2.6678,-0.95073 3.68204,-2.14892 0.60546,-0.71528 0.7283,-1.05462 1.17354,-1.90168 0.75045,-1.77353 0.95052,-3.31867 0.68258,-5.30372 -0.17796,-1.31838 -0.38306,-1.81126 -0.76108,-3.05578 -0.65715,-1.84113 -1.54178,-3.56906 -2.80085,-4.90238 -0.2815,-0.29838 -0.57123,-0.59212 -0.89422,-0.82095 -0.38325,-0.27155 -0.80788,-0.44746 -1.21182,-0.67129 -0.40837,-0.10216 -0.81001,-0.25784 -1.22509,-0.3072 -1.34165,-0.16002 -2.55533,0.24533 -3.67166,1.14819 -0.9253,0.74831 -1.15353,1.24131 -1.84838,2.26742 -0.22023,0.4769 -0.4708,0.93517 -0.66061,1.43074 -0.54107,1.41254 -0.84321,3.01717 -0.74587,4.57774 0.0937,1.50179 0.28769,1.75846 0.75837,3.13045 0.27413,0.45505 0.505,0.95305 0.82238,1.36516 1.21369,1.57596 3.11443,2.57358 4.91154,2.28709 0.44189,-0.0703 0.85855,-0.28913 1.28783,-0.43422 0.4694,-0.48742 1.0058,-0.89435 1.40821,-1.46232 0.32123,-0.45312 0.53264,-1.01047 0.73099,-1.55674 0.54183,-1.49223 0.72749,-3.24972 0.59896,-4.8644 -0.0424,-0.53273 -0.15722,-1.0534 -0.23579,-1.58008 -0.34877,-1.15756 -0.44542,-1.78882 -1.11771,-2.76042 -0.9197,-1.32927 -2.30361,-2.1481 -3.76609,-1.80187 -0.50932,0.12011 -0.9575,0.48366 -1.43626,0.7255 -0.38345,0.46915 -0.82731,0.87583 -1.15037,1.40689 -1.14738,1.88602 -1.45174,4.84843 -0.65568,6.99313 0.21454,0.57797 0.56817,1.06507 0.85225,1.59768 0.42136,0.37618 0.78344,0.87586 1.26409,1.12807 1.7182,0.90157 3.3845,0.22087 4.51474,-1.49813 0.80602,-1.22586 0.75762,-1.91476 0.98721,-3.39039 -0.0819,-1.28128 0.0116,-2.23845 -0.70329,-3.33656 -0.33867,-0.5203 -0.74632,-1.10799 -1.28345,-1.24165 -0.77013,-0.19168 -1.61699,-0.0298 -2.34226,0.33934 -0.81106,0.4097 -1.26837,1.83091 -1.62223,2.68849 -0.22823,0.83793 -0.29617,0.98284 -0.42289,1.7577 -0.0224,0.13596 -0.15744,0.37665 -0.0464,0.41159 1.26527,0.39413 2.56421,0.65327 3.86685,0.77901 0.11948,0.01 0.0941,-0.26709 0.15625,-0.39084 0.0321,-0.0642 0.0828,-0.11171 0.12414,-0.16785 -0.99222,1.12589 -0.86903,1.40546 -2.80888,0.18599 -0.2752,-0.17281 -0.37954,-0.64431 -0.3923,-1.01825 -0.0297,-0.86802 0.36364,-1.73394 1.10608,-1.93778 0.34083,-0.0934 0.69547,0.0859 1.04321,0.1287 -0.16098,0.76107 0.41371,0.27185 0.56821,0.47919 0.38274,0.51354 -0.4617,1.2598 -0.69864,1.34546 -0.3521,0.12755 -0.73485,-0.0239 -1.10228,-0.0378 -0.0859,-0.19733 -0.38939,-0.13882 -0.501,-0.3229 -0.21415,-0.35402 0.0185,-0.96489 0.24639,-1.17885 0.36901,-0.34646 0.83574,-0.58009 1.30139,-0.63154 0.30842,-0.033 0.58039,0.26111 0.87059,0.39174 0.0758,0.0878 0.16264,0.16365 0.22725,0.2638 0.0487,0.0754 0.10628,0.15944 0.10805,0.25515 0.0258,1.41584 -0.42476,2.00825 -2.0649,2.25343 -0.0116,0.002 -0.86898,-0.62298 -1.25842,-0.90648 -0.007,0.0479 -0.008,0.19018 -0.0224,0.14454 -0.21917,-0.70292 0.95699,-1.84532 0.97529,-1.85021 0.78129,-0.20688 1.58282,0.34506 2.33178,0.68377 0.12052,0.0542 0.2245,0.48658 0.27444,0.67226 -0.0847,2.25076 -3.31156,2.17283 -3.43123,-0.0957 2.53972,-1.86236 1.84727,-2.59875 3.60475,-0.46021 0.20003,0.24354 0.08,0.87213 -0.0531,1.04931 -0.25849,0.34413 -0.61395,0.56048 -0.92092,0.84076 -0.38591,-0.0298 -0.78538,0.0378 -1.15772,-0.0873 -0.2175,-0.0737 -0.37566,-0.3059 -0.54406,-0.4873 -0.29919,-0.32223 -0.30392,-0.98212 -0.0892,-1.3623 0.18971,-0.3361 0.4961,-0.55027 0.74414,-0.82537 0.68372,-0.152 1.13545,-0.26976 1.65891,0.34411 0.0704,0.0825 0.20422,0.29451 0.18173,0.42813 -0.0524,0.31045 -0.17247,0.5985 -0.25871,0.89778 -0.17415,0.16689 -0.32776,0.37143 -0.52244,0.50143 -0.351,0.23459 -0.87909,0.12107 -1.15211,-0.22654 -0.28624,-0.36391 -0.24663,-0.51247 -0.30029,-0.96848 0.0555,-0.20835 0.0658,-0.44322 0.16638,-0.62577 0.44322,-0.80344 0.96862,-0.81169 1.80173,-0.71881 0.19442,0.0239 0.3701,0.18274 0.51084,0.346 0.35868,0.41583 0.34009,0.5827 0.41188,1.055 -0.0332,0.15715 -0.0263,0.33609 -0.0999,0.47157 -0.41539,0.76518 -1.15486,1.09375 -1.84972,0.64464 -0.33429,-0.2161 -0.42,-0.42623 -0.59201,-0.74693 -0.018,-0.0817 -0.0504,-0.1604 -0.0538,-0.24503 -0.025,-0.62261 0.65601,-0.8482 1.03698,-0.86042 0.27459,-0.01 0.48075,0.13901 0.70513,0.27604 0.0247,-0.01 0.0574,2e-5 0.0736,-0.0239 0.029,-0.0424 0.0302,-0.10407 0.0484,-0.1541 0.036,-0.0999 0.11618,-0.30363 0.17728,-0.38282 0.0178,-0.0239 0.0654,-0.0657 0.0726,-0.033 0.0121,0.0516 -0.0302,0.10082 -0.0452,0.15085 -0.55432,0.43376 -0.50106,0.53818 -1.17854,0.50612 -0.12278,-0.004 -0.23677,-0.0793 -0.35519,-0.11897 2.42835,1.60059 4.30503,-2.54142 1.87668,-4.14199 v 0 c -0.23967,-0.11915 -0.46397,-0.30197 -0.71902,-0.35874 -1.13037,-0.25188 -1.15175,-0.01 -2.18731,0.54704 -0.208,0.25188 -0.44176,0.47616 -0.62394,0.75554 -0.76399,1.17159 -1.10058,2.85727 -0.87394,4.3207 0.0664,0.42906 0.21567,0.83306 0.32349,1.24962 0.58082,0.99071 0.77934,1.66428 1.87846,2.02377 1.38688,0.4536 2.748,-0.39367 3.38589,-1.88868 0.18954,-0.44417 0.24598,-0.95397 0.36893,-1.43094 -0.087,-1.40351 0.0685,-2.00913 -0.88172,-3.13511 -0.69334,-0.8216 -1.73562,-1.03875 -2.64032,-0.67163 -0.42526,0.17281 -0.79741,0.53418 -1.10313,0.93031 -0.25925,0.33562 -0.36487,0.80534 -0.54729,1.20798 -0.12473,1.28435 -0.3359,1.75281 0.3323,2.99888 0.64277,1.19856 1.66789,1.45646 2.81612,1.17633 0.94049,-0.22952 1.20458,-1.25449 1.58415,-2.09353 0.0317,-0.44464 0.14031,-0.89094 0.0951,-1.33383 -0.15066,-1.47585 -1.03534,-2.69382 -2.24035,-3.04064 -0.3829,-0.10999 -0.7974,-0.14302 -1.18059,-0.033 -0.46065,0.1308 -0.85527,0.48879 -1.2829,0.73319 -0.27484,0.5262 -0.638,0.99879 -0.82457,1.57861 -0.12781,0.39697 -0.11796,0.84816 -0.0931,1.27311 0.0771,1.3166 0.76504,2.78793 1.87363,3.2136 0.4687,0.17969 0.98276,0.0533 1.47414,0.0802 0.42282,-0.34596 0.93108,-0.57528 1.26844,-1.03812 0.94164,-1.29196 0.55448,-4.09085 -0.73031,-4.88891 -0.48537,-0.30163 -1.07074,-0.25815 -1.6061,-0.38706 -0.45425,0.32059 -0.97926,0.527 -1.36273,0.96178 -0.37339,0.42338 -0.60787,1.41972 -0.61902,2.04539 -0.007,0.37191 -0.0719,0.792 0.0865,1.11133 0.35026,0.70637 0.6908,1.80409 1.37282,1.8317 0.97086,0.0378 1.70884,-1.11487 2.56327,-1.67225 0.04,-0.29212 0.11201,-0.58019 0.1201,-0.87597 0.0229,-0.84439 -0.17091,-2.23422 -0.90118,-2.63749 -1.5308,-0.84545 -2.43624,-0.48482 -3.17429,0.9095 -0.16982,0.32093 -0.20558,0.71973 -0.30838,1.07963 -0.009,0.36014 -0.0717,0.72407 -0.0257,1.07987 0.2175,1.68392 0.91961,2.69662 2.88934,2.39815 1.02628,-0.15524 1.32964,-1.75516 1.35384,-2.69997 0.008,-0.31438 -0.0445,-0.62704 -0.0667,-0.94056 -0.25995,-1.04565 -0.45939,-2.57331 -1.77129,-2.68867 -2.15685,-0.1898 -3.05005,1.89043 -2.46825,3.86259 0.12552,0.42578 0.35617,0.79491 0.53426,1.19234 0.46236,0.35496 0.84411,0.97467 1.38708,1.0655 1.87882,0.31438 3.05156,-1.39902 2.94883,-3.4619 -0.0274,-0.55015 -0.11929,-1.11305 -0.32134,-1.60727 -0.21778,-0.53273 -0.60647,-0.9359 -0.90971,-1.40383 -0.61895,-0.21194 -1.21476,-0.68397 -1.85684,-0.6352 -0.55154,0.0424 -1.0626,0.45926 -1.48502,0.88897 -0.8753,0.89056 -1.1407,3.00393 -0.69412,4.22922 0.20643,0.56647 0.57782,1.02268 0.86673,1.53406 0.56946,0.23132 1.10755,0.70293 1.70837,0.69376 1.2344,-0.0208 2.15042,-1.2512 2.30858,-2.65414 0.0722,-0.64083 0.0274,-1.46342 -0.37864,-1.88569 -1.92376,-2.00004 -2.23389,-1.16793 -3.56694,-0.0298 -0.14317,0.27067 -0.29903,0.5321 -0.42953,0.81192 -0.0945,0.2027 -0.41703,0.52972 -0.24404,0.63251 1.14779,0.68171 2.45804,0.86588 3.65954,1.39615 0.0541,0.0239 -0.0435,0.27274 -0.0317,0.20478 0.1081,-0.61882 -0.015,-0.0298 0.16633,-0.82882 0.0387,-0.14551 0.14429,-0.28704 0.11584,-0.43564 -0.0156,-0.0825 -0.13854,-0.0298 -0.20736,-0.0426 -0.4426,-0.10407 -0.91996,-0.0838 -1.32676,-0.31828 -0.18182,-0.10483 -0.25036,-0.39368 -0.31023,-0.62592 -0.015,-0.0575 0.0934,-0.15677 0.12118,-0.10635 0.0837,0.1518 0.0749,0.35261 0.1124,0.52868 0.0136,0.14818 0.0383,0.2954 0.0407,0.44417 0.002,0.10216 -0.0767,0.43281 0.0198,0.5592 0.0882,0.11572 0.40831,0.1858 0.35973,0.45975 -0.0126,0.0716 -0.11529,0.0472 -0.17294,0.0689 -0.0827,-0.0575 -0.19095,-0.0812 -0.24825,-0.17377 -0.10298,-0.16613 -0.16257,-0.36863 -0.21129,-0.56718 -0.12825,-0.52332 -0.1105,-0.86575 -0.0188,-1.39994 0.0352,-0.20389 0.11431,-0.39368 0.15498,-0.59574 0.0188,-0.0939 0.0155,-0.19317 0.0229,-0.28914 -0.0282,-0.0563 -0.30475,-0.44887 -0.12469,-0.49015 0.37354,-0.0857 0.65216,0.89428 0.731,1.11958 0.0534,0.26141 0.12769,0.51851 0.1601,0.78517 0.0703,0.57873 0.0531,1.20988 -0.0203,1.78613 -0.034,0.26709 -0.0894,0.52991 -0.15078,0.78966 -0.0458,0.19345 -0.18469,0.36772 -0.17021,0.56818 0.007,0.10101 0.1479,0.0974 0.22182,0.1455 -0.0496,0.0575 -0.0869,0.13615 -0.14888,0.17281 -0.50202,0.29302 -1.28811,-0.12335 -1.68739,-0.49836 -0.12202,-0.11476 -0.22017,-0.26202 -0.33026,-0.39325 -0.23384,-0.49152 -0.32639,-0.58885 -0.40669,-1.17205 -0.14999,-1.08911 0.18181,-2.16101 0.58287,-3.11466 0.38122,-0.65874 0.2876,-0.57019 0.75216,-1.10243 0.45582,-0.52218 0.81485,-0.59928 1.431,-0.52894 0.12224,0.033 0.25395,0.033 0.3667,0.1014 0.17358,0.10197 0.32795,0.24831 0.4779,0.39508 0.85752,0.83924 1.42529,1.99127 1.87269,3.1905 0.3069,0.93991 0.5417,1.66431 0.62842,2.67724 0.016,0.18503 0.0321,0.37239 0.018,0.55802 -0.0274,0.3658 -0.14703,0.67591 -0.25356,1.01267 -0.48765,1.08452 -0.87393,1.48653 -1.89472,1.79914 -0.1775,0.033 -0.35332,0.0819 -0.53239,0.0939 -0.57088,0.0378 -1.28415,-0.0787 -1.81052,-0.36059 -0.36721,-0.19643 -0.62257,-0.45784 -0.93651,-0.74278 -0.12845,-0.19435 -0.2651,-0.38188 -0.38529,-0.58385 -0.6003,-1.00957 -0.92711,-2.16309 -0.99588,-3.40181 0.0121,-0.22446 0.0136,-0.45032 0.0364,-0.67363 0.10792,-1.05892 0.42379,-2.07575 0.96101,-2.92598 0.0595,-0.0915 0.11901,-0.18293 0.1785,-0.27483 -0.002,-0.033 -0.0177,-0.0722 -0.007,-0.10426 0.0185,-0.0558 0.12961,-0.11648 0.12806,-0.12546 -0.007,-0.0378 -0.0815,-0.0298 -0.0815,-0.0689 -9e-5,-0.033 0.0543,0.0115 0.0814,0.0239 2.56359,1.25683 4.03727,-3.11582 1.47368,-4.37264 z"
           inkscape:label="pupil" />
        <path
           style="fill:#f6f6f6;fill-opacity:1;fill-rule:nonzero;stroke:#84eb8b;stroke-width:0;stroke-linecap:square;stroke-linejoin:round;stroke-dasharray:none;stroke-opacity:1"
           id="path29-9"
           d="m 153.39317,541.06636 c 0.0188,0.0466 0.007,0.01 -0.0116,0.11476 -0.0532,0.2945 -0.37747,0.42706 -0.58894,0.55332 -0.21703,0.0367 -0.43136,0.12278 -0.65112,0.1138 -0.57015,-0.0239 -1.07132,-0.32702 -1.34848,-0.84591 -0.099,-0.21522 -0.0537,-0.44215 0.0292,-0.65191 0.27144,-0.48946 0.77525,-0.72211 1.2946,-0.6911 0.4753,0.0953 0.81602,0.44715 0.97458,0.92307 0.0888,0.36128 -0.03,0.48525 -0.23962,0.80505 -0.51767,0.53384 -1.29639,0.6614 -1.91601,0.25337 -0.28751,-0.22803 -0.39453,-0.56513 -0.43004,-0.92846 -0.0108,-0.21134 0.0434,-0.38822 0.13656,-0.57243 0.2654,-0.36995 0.67184,-0.51826 1.08411,-0.56502 0.79164,0.0239 1.30398,0.45446 1.68914,1.21131 0.0889,0.17434 0.0973,0.38366 0.14595,0.57549 -0.27589,-3.21622 -4.54412,-2.80046 -4.26822,0.41564 v 0 c 0.0538,0.25127 0.0561,0.52132 0.16121,0.75325 0.49006,1.08139 1.19879,1.51185 2.26402,1.61154 0.14153,-0.01 0.28391,-0.01 0.42462,-0.0267 0.68371,-0.0909 1.31285,-0.46155 1.76232,-1.01444 0.49721,-0.64511 0.83459,-1.37813 0.88354,-2.22389 -0.003,-0.17434 0.006,-0.3494 -0.01,-0.52325 -0.0741,-0.83367 -0.45845,-1.58185 -1.0229,-2.15257 -0.12464,-0.10578 -0.24083,-0.22415 -0.37395,-0.31743 -0.84745,-0.59502 -1.91059,-0.76592 -2.84431,-0.26619 -0.22447,0.12011 -0.41745,0.29779 -0.62621,0.44624 -0.17094,0.21224 -0.35904,0.41016 -0.51272,0.63693 -0.4779,0.70507 -0.60103,1.69958 -0.54859,2.54083 0.0356,0.19196 0.0555,0.38778 0.10708,0.57528 0.31905,1.16004 1.07732,1.9084 2.13939,2.27833 0.17788,0.0363 0.3533,0.0903 0.53358,0.10827 1.14852,0.11418 2.09235,-0.37681 2.77544,-1.34783 0.086,-0.15467 0.18277,-0.30375 0.25802,-0.46476 0.38437,-0.82316 0.44915,-1.74884 0.25241,-2.63661 -0.051,-0.1667 -0.0892,-0.33844 -0.153,-0.49977 -0.40096,-1.01414 -1.1926,-1.81705 -2.26022,-1.9577 -0.33212,-0.0456 -0.66735,0.0548 -1.00102,0.0823 -0.23826,0.10998 -0.49075,0.19056 -0.71484,0.33066 -0.82851,0.5174 -1.34631,1.44441 -1.58647,2.40791 -0.62968,3.15917 3.56282,4.1081 4.19249,0.94897 z"
           inkscape:label="accent2" />
        <path
           style="fill:#f6f6f6;fill-opacity:1;fill-rule:nonzero;stroke:#84eb8b;stroke-width:0;stroke-linecap:square;stroke-linejoin:round;stroke-dasharray:none;stroke-opacity:1"
           id="path28-6"
           d="m 140.16027,529.41976 c -0.004,0.004 -0.0176,0.0261 -0.0147,0.0156 0.16343,-0.61167 0.80336,-0.65827 1.14636,-0.74558 0.3048,0.14513 0.65673,0.18393 0.91438,0.4355 0.51631,0.50407 0.68943,1.46383 0.40287,2.2791 -0.21958,0.48693 -0.64043,0.65026 -1.02779,0.6549 -0.0974,9.4e-4 -0.19006,-0.0376 -0.28468,-0.0577 -0.48208,-0.19188 -0.66809,-0.87661 -0.69095,-1.52433 0.0266,-0.6161 0.32104,-1.13141 0.68994,-1.5054 0.13511,-0.13134 0.28816,-0.16995 0.4441,-0.20996 0.80382,0.02 0.99114,0.0808 1.40622,0.88616 0.25004,0.71431 0.22534,1.45029 -0.0956,2.18498 -0.14288,0.29968 -0.35022,0.51646 -0.58029,0.67724 -0.41812,0.23327 -0.88386,0.26312 -1.2628,-0.005 -0.0871,-0.0647 -0.16628,-0.14371 -0.2495,-0.21524 -0.43535,-0.52672 -0.70866,-1.46371 -0.42624,-2.28921 0.0367,-0.1077 0.0838,-0.20935 0.12514,-0.3135 0.59743,-1.10434 1.60922,-1.4869 2.42685,-0.83545 0.14928,0.11873 0.25644,0.31016 0.38463,0.46528 0.41242,0.83945 0.41199,1.59768 0.005,2.53989 -0.13515,0.2559 -0.30517,0.47986 -0.51262,0.62274 -0.26635,0.16963 -0.51094,0.12521 -0.78498,0.0994 -0.58409,-0.31309 -0.93425,-0.34977 -1.19309,-1.32271 -0.28302,-1.0607 -0.0257,-1.99911 0.56805,-2.79091 0.0655,-0.0875 0.1472,-0.1488 0.22071,-0.22288 0.86766,-0.68253 1.96535,-0.41842 2.36676,0.70064 0.16434,0.45881 0.12074,0.64057 0.10833,1.133 -0.0478,0.19459 -0.0764,0.39784 -0.14393,0.58435 -0.21285,0.58896 -0.68027,1.09129 -1.15707,1.19067 -0.23522,0.0489 -0.48509,0.0754 -0.70165,-0.0194 -0.27966,-0.12424 -0.49543,-0.40724 -0.74318,-0.61073 -0.0998,-0.25702 -0.2247,-0.49633 -0.29965,-0.77042 -0.12664,-0.46384 -0.004,-1.11624 0.2448,-1.52105 0.0737,-0.12018 0.16538,-0.21928 0.24805,-0.32867 0.12681,-0.0966 0.24427,-0.22622 0.38032,-0.28937 0.6359,-0.29414 1.21166,-0.0965 1.63403,0.51245 0.26061,0.37581 0.24739,0.65836 0.30792,1.14077 -0.009,0.13295 -0.009,0.26672 -0.0288,0.39907 -0.22242,1.50676 -1.4568,1.91655 -2.58275,1.78143 -0.74373,-0.0892 -0.81143,-1.06676 -0.91112,-1.75621 0.01,-0.67746 0.23436,-1.39768 0.7151,-1.78032 0.18046,-0.14351 0.3732,-0.32147 0.57413,-0.32897 0.42447,-0.0158 0.82397,0.17427 1.2361,0.26087 0.17511,0.25588 0.38638,0.47283 0.52544,0.76738 0.22545,0.47821 0.18384,1.06497 0.0249,1.59507 0.0737,-0.10012 -0.21242,0.46372 -0.15515,0.35088 0.0379,-0.075 0.0925,-0.14169 0.11206,-0.22657 0.0512,-0.22281 0.27876,-2.06097 0.29373,-1.4618 -0.0117,0.66922 -0.62222,1.51765 -1.03393,1.68503 -0.50369,0.20483 -1.02274,-0.002 -1.53419,-0.003 -0.18084,-0.21486 -0.38944,-0.39352 -0.54249,-0.64424 -0.22238,-0.36425 -0.29363,-1.01544 -0.14463,-1.49446 0.041,-0.13133 0.10011,-0.25319 0.14996,-0.37962 0.41642,-0.73382 1.05475,-1.06566 1.661,-0.82174 1.26902,0.77754 1.17193,3.32909 -0.2572,4.30123 -0.39571,0.2067 -0.84735,0.20858 -1.19697,-0.0543 -0.11537,-0.0849 -0.21496,-0.20202 -0.32238,-0.30325 -0.0969,-0.1694 -0.2203,-0.31468 -0.29064,-0.50805 -0.37836,-1.04128 -0.16659,-2.07157 0.47983,-2.92737 0.49403,-0.21789 0.98799,-0.43551 1.48198,-0.6533 -2.55212,-0.39466 -3.33327,4.52613 -0.78116,4.92086 v 0 c 0.51153,-0.21512 1.02305,-0.43017 1.53457,-0.64522 0.0718,-0.0929 0.15019,-0.17708 0.2154,-0.27873 0.57687,-0.89728 0.72878,-2.03319 0.3865,-3.02682 -0.079,-0.22952 -0.21954,-0.40543 -0.32917,-0.60865 -0.12989,-0.13026 -0.24976,-0.27923 -0.38979,-0.39034 -0.53634,-0.42702 -1.22107,-0.39738 -1.83752,-0.10828 -0.21144,0.12951 -0.72505,0.40978 -0.8164,0.6715 -0.29991,0.85931 -0.54214,1.77686 -0.60921,2.6931 -0.0294,0.40203 0.44021,1.02276 0.6734,1.25239 0.10147,0.10001 0.2199,0.16752 0.32976,0.25163 0.10396,0.0506 0.20455,0.11235 0.31183,0.152 0.72237,0.27154 1.5123,0.0701 2.16524,-0.58658 0.17021,-0.1709 0.30341,-0.40252 0.45503,-0.60352 0.10822,-0.22982 0.23403,-0.4482 0.32474,-0.68965 0.33927,-0.90252 0.40921,-2.23829 0.0138,-3.03278 -0.17237,-0.3465 -0.43478,-0.59075 -0.65217,-0.88609 -0.5559,-0.034 -1.11374,-0.29938 -1.6678,-0.10164 -0.92591,0.33092 -1.35653,1.84557 -1.45875,2.92387 -0.005,0.12424 -0.0109,0.24828 -0.0135,0.37212 -0.002,0.0522 -0.009,0.19858 0.002,0.14963 0.10968,-0.46821 0.18112,-0.94741 0.29426,-1.41483 0.0166,-0.0686 0.1232,-0.24361 0.0923,-0.18285 -0.15653,0.30665 -0.0923,0.17094 -0.23335,0.51015 -0.27056,0.83246 -0.42241,1.88039 -0.10781,2.66738 0.15044,0.3763 0.40088,0.65618 0.60138,0.98405 0.45692,0.1264 0.89538,0.37791 1.37036,0.38061 0.26228,-4e-5 0.52193,-0.20493 0.76297,-0.37907 0.58341,-0.42195 1.01773,-1.24756 1.19038,-2.07295 0.0533,-0.25628 0.059,-0.51988 0.0886,-0.77975 -0.0769,-0.8352 -0.0802,-2.11312 -0.96303,-2.29058 -1.44489,-0.29055 -2.51435,0.38752 -2.82436,2.06928 -0.04,0.21634 -0.0496,0.43725 -0.0744,0.65569 0.056,0.72887 0.017,1.13596 0.36782,1.73417 0.53655,0.91492 1.35314,1.24453 2.24987,0.91211 0.22833,-0.0845 0.43422,-0.27522 0.65143,-0.41308 0.16794,-0.18923 0.35175,-0.35572 0.50378,-0.5678 0.53465,-0.74646 0.90541,-2.04142 0.72542,-3.00186 -0.0735,-0.39319 -0.23378,-0.73692 -0.35067,-1.10537 -0.29148,-0.27738 -0.53774,-0.65462 -0.87471,-0.83113 -0.94973,-0.49658 -2.17697,0.34609 -2.69408,1.5635 -0.11779,0.27725 -0.17665,0.58697 -0.26468,0.88056 -0.0556,0.74979 -0.13776,1.02257 0.0737,1.73241 0.15148,0.50882 0.56853,1.25808 1.00014,1.38072 0.4556,0.1313 0.94982,0.0525 1.42771,-0.0147 0.12604,-0.0178 0.23369,-0.15694 0.35061,-0.23555 0.099,-0.0957 0.20803,-0.1744 0.29696,-0.28692 0.29772,-0.37676 0.64803,-0.918 0.70841,-1.47466 0.13298,-1.2259 0.004,-1.8078 -0.655,-2.55172 -0.17095,-0.19277 -0.41806,-0.23224 -0.62708,-0.34836 -0.13917,-0.0146 -0.27669,-0.0388 -0.41636,-0.0479 -0.32173,-0.0213 -0.65786,0.12945 -0.96652,0.27687 -0.4945,0.29772 -0.94642,0.68793 -1.27811,1.2927 -0.0718,0.1547 -0.15384,0.30181 -0.2155,0.46311 -0.37377,0.97812 -0.30946,2.02318 0.10166,2.84723 0.38509,0.49092 0.47758,0.74481 1.05549,0.89364 0.83601,0.21455 1.64678,-0.34562 2.16758,-1.29025 0.066,-0.15289 0.13964,-0.30125 0.19793,-0.45943 0.39451,-1.07107 0.29796,-1.88461 -0.0701,-2.88228 -0.0636,-0.17248 -0.19061,-0.28258 -0.28587,-0.42407 -0.11126,-0.10362 -0.21543,-0.22109 -0.33372,-0.31093 -0.55341,-0.42048 -1.23427,-0.39993 -1.86267,-0.0809 -0.48367,0.30756 -0.92527,0.71358 -1.23378,1.32562 -0.33685,0.71965 -0.53432,1.50712 -0.4071,2.31103 0.0344,0.2177 0.10557,0.41658 0.15823,0.62521 0.0746,0.15395 0.1402,0.3168 0.224,0.46136 0.22816,0.39331 0.64255,0.78513 1.02034,0.88381 0.23851,0.0626 0.48917,0.0565 0.73392,0.0841 0.41663,-0.0894 0.81727,-0.25472 1.19159,-0.5619 0.10153,-0.0943 0.20798,-0.1788 0.30457,-0.28254 0.56841,-0.61038 0.89723,-1.47377 0.98248,-2.39458 0.0126,-0.60122 0.0529,-0.8597 -0.12837,-1.46267 -0.24018,-0.79888 -0.70626,-1.27292 -1.26143,-1.63462 -0.54819,-0.19748 -0.70032,-0.33498 -1.32648,-0.18967 -0.75233,0.17516 -1.36079,0.80957 -1.85656,1.58769 -0.10115,0.20696 -0.21679,0.40397 -0.30369,0.62155 -0.48178,1.20593 -0.51932,2.79236 0.25239,3.67159 0.28868,0.32859 0.70645,0.40026 1.05974,0.60017 0.29394,-0.0505 0.59087,-0.0553 0.88177,-0.15165 0.17581,-0.0582 0.34148,-0.18378 0.5021,-0.30656 0.55183,-0.42214 0.98361,-1.07263 1.28997,-1.80799 1.26362,-3.21865 -1.968,-5.1697 -3.23163,-1.95101 z"
           inkscape:label="accent1" />
      </g>
      <path
         style="fill:#021f21;fill-opacity:1;stroke:#c8d982;stroke-width:0;stroke-linecap:square;stroke-linejoin:round;stroke-dasharray:none;stroke-opacity:1"
         id="path2"
         d="m 71.575249,540.60709 c 0.103622,0.0385 0.204134,0.0886 0.310871,0.11557 0.792631,0.20074 1.625332,0.2369 2.441527,0.29762 0.889668,0.0662 1.780153,0.12634 2.669887,0.19203 4.623645,0.35582 9.196955,1.03717 13.767368,1.7193 4.204646,0.65152 8.398617,1.36375 12.570398,2.18479 0.37718,0.0794 0.7556,0.15313 1.13183,0.23692 0.27202,0.0605 0.54347,0.12394 0.81275,0.19613 0.16136,0.0434 0.32267,0.0888 0.47853,0.15161 0.0183,0.007 -0.0485,0.0371 -0.0594,0.0178 -0.32322,-0.57715 -0.8879,-1.03003 -0.92493,-1.77526 -0.0359,-0.72094 0.48873,-1.38932 0.73311,-2.08397 -0.0424,-0.003 -0.0844,-0.0205 -0.12689,-0.006 -0.23773,0.0778 -0.47101,0.19027 -0.70737,0.27941 -0.34636,0.1306 -0.69357,0.25489 -1.04069,0.37975 -1.41844,0.51019 -1.32644,0.46063 -2.8388,1.02247 -0.57783,0.21466 -1.15467,0.4366 -1.732,0.6549 -3.504468,1.35019 -6.984535,2.87779 -10.419424,4.61606 -0.734752,0.37184 -1.465321,0.76232 -2.197983,1.14348 -0.698227,0.37927 -1.398454,0.75047 -2.09468,1.13782 -1.116199,0.621 -2.657076,1.51555 -3.774718,2.19007 -0.960631,0.57973 -2.009986,1.23415 -2.957706,1.87353 -0.385193,0.25987 -0.764728,0.53641 -1.147092,0.8046 -0.304117,0.23089 -0.608232,0.46178 -0.912349,0.69267 -2.445103,1.8616 -0.815133,6.05354 1.62997,4.19196 v 0 c 0.259978,-0.1986 0.519952,-0.39718 0.779923,-0.59576 0.342948,-0.2415 0.683215,-0.49085 1.02884,-0.72449 0.900184,-0.60849 1.893912,-1.22844 2.80613,-1.77929 1.072538,-0.64766 2.580422,-1.52389 3.651507,-2.12019 0.676232,-0.37646 1.356368,-0.73721 2.03455,-1.10581 0.707631,-0.36849 1.413243,-0.74597 2.122898,-1.10547 3.330392,-1.68705 6.704895,-3.16869 10.102984,-4.4785 1.6901,-0.63933 1.58509,-0.60759 3.217,-1.19539 0.6147,-0.22139 1.8303,-0.64343 2.46924,-0.89097 0.3284,-0.12726 0.6591,-0.24471 0.98182,-0.40407 0.32599,-0.16096 0.64048,-0.3701 0.96073,-0.55515 0.41792,-0.84379 1.18683,-1.5787 1.25378,-2.53134 0.13491,-1.91919 -1.17575,-2.40327 -2.19164,-2.67517 -0.67215,-0.17993 -1.38176,-0.31644 -2.05984,-0.45856 -4.21452,-0.82894 -8.451166,-1.54939 -12.698893,-2.20701 -4.640147,-0.6924 -9.283474,-1.38254 -13.977791,-1.74271 -1.399026,-0.10327 -2.800409,-0.18852 -4.19408,-0.32916 -0.220615,-0.0222 -0.223219,-0.11237 -0.217055,-0.008 -2.427359,-1.15193 -4.109542,3.52244 -1.682182,4.67435 z" />
      <path
         style="fill:#021f21;fill-opacity:1;stroke:#c8d982;stroke-width:0;stroke-linecap:square;stroke-linejoin:round;stroke-dasharray:none;stroke-opacity:1"
         id="path4"
         d="m 111.70425,587.75752 c 1.18004,0.30752 2.39074,0.46562 3.60821,0.51776 0.421,0.018 0.8426,0.0172 1.26389,0.0258 2.00243,-0.004 4.00792,-0.12883 5.98694,-0.44398 1.54653,-0.24627 1.95037,-0.37148 3.48245,-0.73243 2.84876,-0.75191 5.64848,-1.73287 8.28084,-3.06556 0.48925,-0.24769 0.96452,-0.52208 1.44678,-0.78313 1.64268,-0.95978 3.17509,-2.10513 4.51484,-3.45834 0.60622,-0.61231 0.77641,-0.84669 1.30295,-1.48699 0.14249,-0.18739 0.28498,-0.37479 0.42748,-0.56218 2.1336,-2.81918 -1.85332,-5.83654 -3.98692,-3.01737 v 0 c -0.10563,0.14046 -0.21126,0.28092 -0.31689,0.42138 -0.35402,0.44048 -0.47956,0.61548 -0.88965,1.03858 -1.01584,1.04808 -2.18923,1.92821 -3.44208,2.67327 -0.40049,0.21941 -0.79479,0.45055 -1.20148,0.65825 -2.31541,1.18244 -4.78249,2.04739 -7.29037,2.7172 -1.29397,0.30966 -1.68711,0.42944 -2.98968,0.64131 -1.72972,0.28133 -3.48318,0.39302 -5.23419,0.40082 -0.34269,-0.005 -0.68557,-0.004 -1.02808,-0.0159 -0.90724,-0.0327 -1.80935,-0.1382 -2.68822,-0.3705 -3.42385,-0.88163 -4.67066,3.96042 -1.24682,4.84205 z" />
      <path
         style="fill:#021f21;fill-opacity:1;stroke:#c8d982;stroke-width:0;stroke-linecap:square;stroke-linejoin:round;stroke-dasharray:none;stroke-opacity:1"
         id="path5"
         d="m 126.05205,583.15653 c -0.0714,0.0903 -0.15373,0.17293 -0.21428,0.27084 -0.34099,0.55136 -0.52778,1.2557 -0.62602,1.89027 -0.0337,0.218 -0.0539,0.43789 -0.0808,0.65684 -0.008,0.25601 -0.0271,0.51194 -0.0232,0.76804 0.0196,1.2785 0.24548,2.57574 0.71236,3.76859 0.13608,0.34768 0.31034,0.67918 0.46551,1.01877 0.19595,0.31754 0.36931,0.65018 0.58784,0.95262 0.73896,1.02266 1.57293,1.75685 2.72124,2.29534 0.90374,0.42381 1.27043,0.43872 2.22333,0.6275 0.35389,0.0182 0.70765,0.0697 1.06169,0.0545 1.07625,-0.0463 2.16766,-0.37436 3.10033,-0.91127 0.86096,-0.49563 1.03406,-0.75473 1.77158,-1.46218 1.04618,-1.18343 1.7147,-2.39176 2.11589,-3.92223 0.24815,-0.94666 0.23229,-1.14568 0.33006,-2.10089 0.006,-0.33119 0.0315,-0.66257 0.0185,-0.99355 -0.034,-0.86115 -0.12023,-1.35913 -0.31661,-2.18828 -0.14964,-0.63177 -0.33564,-1.25105 -0.5805,-1.85287 -0.11268,-0.27694 -0.25043,-0.543 -0.37564,-0.8145 -0.11631,-0.18088 -0.81531,-1.35524 -1.08608,-1.43626 -0.40301,-0.12059 -0.83809,0.0737 -1.25714,0.11055 -1.40519,-1.19363 -3.09324,0.79361 -1.68805,1.98724 v 0 c -0.15266,0.26313 -0.37024,0.49812 -0.45797,0.7894 -0.0599,0.199 0.49627,0.29149 0.34408,0.51993 0.0765,0.15285 0.1597,0.30257 0.22965,0.45855 0.26735,0.59611 0.45424,1.21144 0.59435,1.8485 0.0413,0.18789 0.0909,0.37499 0.11151,0.56627 0.0215,0.19953 0.01,0.40127 0.0144,0.6019 -0.0299,0.42125 -0.0427,0.80412 -0.12892,1.21906 -0.16284,0.78358 -0.52419,1.50081 -1.01229,2.13065 -0.0933,0.11425 -0.17406,0.24003 -0.27993,0.34275 -0.0937,0.0909 -0.20499,0.16235 -0.31432,0.23373 -0.44494,0.29048 -0.87727,0.39789 -1.40764,0.37146 -0.39919,-0.0495 -0.82589,-0.0919 -1.1802,-0.30573 -0.46394,-0.28005 -0.80451,-0.7109 -1.10003,-1.15436 -0.10885,-0.18517 -0.2269,-0.36523 -0.32655,-0.55551 -0.448,-0.85539 -0.6756,-1.80552 -0.79056,-2.75883 -0.009,-0.12133 -0.0234,-0.24239 -0.0285,-0.36398 -0.0105,-0.25393 0.0133,-0.26738 -0.007,-0.49215 -0.003,-0.031 0.01,-0.0777 -0.0181,-0.0917 -0.0551,-0.0278 -0.0951,0.14834 -0.15713,0.0978 1.53923,-2.08238 -1.4057,-4.25918 -2.94493,-2.1768 z" />
    </g>
  </g>
</svg>
