<?xml version="1.0" encoding="UTF-8" standalone="no"?>
<!-- Created with Inkscape (http://www.inkscape.org/) -->

<svg
   width="73.678093mm"
   height="60.708691mm"
   viewBox="0 0 73.678093 60.708691"
   version="1.1"
   id="svg1"
   inkscape:version="1.3.2 (091e20e, 2023-11-25, custom)"
   sodipodi:docname="cell3.svg"
   xmlns:inkscape="http://www.inkscape.org/namespaces/inkscape"
   xmlns:sodipodi="http://sodipodi.sourceforge.net/DTD/sodipodi-0.dtd"
   xmlns="http://www.w3.org/2000/svg"
   xmlns:svg="http://www.w3.org/2000/svg">
  <sodipodi:namedview
     id="namedview1"
     pagecolor="#ffffff"
     bordercolor="#000000"
     borderopacity="0.25"
     inkscape:showpageshadow="2"
     inkscape:pageopacity="0.0"
     inkscape:pagecheckerboard="0"
     inkscape:deskcolor="#d1d1d1"
     inkscape:document-units="mm"
     inkscape:zoom="2.0756092"
     inkscape:cx="27.943603"
     inkscape:cy="103.34315"
     inkscape:window-width="1920"
     inkscape:window-height="1094"
     inkscape:window-x="-11"
     inkscape:window-y="-11"
     inkscape:window-maximized="1"
     inkscape:current-layer="layer1-5" />
  <defs
     id="defs1">
    <inkscape:path-effect
       effect="bspline"
       id="path-effect2"
       is_visible="true"
       lpeversion="1.3"
       weight="33.333333"
       steps="2"
       helper_size="0"
       apply_no_weight="true"
       apply_with_weight="true"
       only_selected="false"
       uniform="false" />
    <inkscape:path-effect
       effect="bspline"
       id="path-effect1"
       is_visible="true"
       lpeversion="1.3"
       weight="33.333333"
       steps="2"
       helper_size="0"
       apply_no_weight="true"
       apply_with_weight="true"
       only_selected="false"
       uniform="false" />
    <inkscape:path-effect
       effect="bspline"
       id="path-effect7"
       is_visible="true"
       lpeversion="1.3"
       weight="33.333333"
       steps="2"
       helper_size="0"
       apply_no_weight="true"
       apply_with_weight="true"
       only_selected="false"
       uniform="false" />
  </defs>
  <g
     inkscape:label="Layer 1"
     inkscape:groupmode="layer"
     id="layer1">
    <g
       inkscape:label="blue cell1"
       inkscape:groupmode="layer"
       id="layer1-5"
       transform="matrix(0.26458333,0,0,0.26458333,1.6519994,-117.005)"
       style="display:inline">
      <path
         style="display:inline;fill:#ead7db;fill-opacity:1;stroke:#e5a8b7;stroke-width:9.82677;stroke-linecap:square;stroke-linejoin:round;stroke-dasharray:none;stroke-opacity:1"
         d="m 18.945364,465.18009 c 11.44961,3.37764 37.096225,28.33729 50.549782,34.00496 13.453558,5.66767 14.712965,-7.95683 24.101831,-19.06317 9.388863,-11.10634 26.906073,-19.6932 39.729883,-18.09023 12.82382,1.60298 20.95271,13.3956 19.34973,26.62017 -1.60297,13.22457 -12.93786,27.87977 -14.02548,36.40975 -1.08762,8.52998 8.07171,10.93431 19.52155,9.38858 11.44983,-1.54573 25.18881,-7.04132 37.66914,-5.95358 12.48033,1.08773 23.70049,8.75866 23.87224,17.40329 0.17175,8.64462 -10.70495,18.26191 -23.07077,25.76156 -12.36583,7.49964 -26.21958,12.88085 -20.03653,26.62061 6.18305,13.73975 32.40162,35.83662 40.1875,49.57642 7.78589,13.7398 -2.86183,19.1209 -27.47898,14.48372 -24.61715,-4.63719 -63.2008,-19.2921 -88.21869,-23.98654 -25.017887,-4.69443 -36.467038,0.57218 -52.210565,7.72833 -15.743527,7.15615 -35.779549,16.20098 -45.1111641,15.97199 -9.331615,-0.229 -7.9577165,-9.7318 3.320375,-25.13184 C 18.373307,621.52408 39.554655,600.22824 34.28752,586.54589 29.020385,572.86355 -2.6937507,566.7955 -15.288578,558.95236 c -12.594828,-7.84314 -6.068816,-17.46042 7.4419937,-20.72363 13.5108101,-3.2632 34.0052013,-0.17187 38.6421823,-5.78232 4.636981,-5.61045 -6.583415,-19.92218 -13.567703,-36.1808 -6.984288,-16.25862 -9.7321414,-34.46315 1.717469,-31.08552 z"
         id="path1"
         inkscape:path-effect="#path-effect1"
         inkscape:original-d="m 4.7478474,443.59758 c 25.6471256,24.96015 51.2937396,49.9198 76.9413746,74.88044 1.259482,-13.6253 2.518889,-27.2498 3.778371,-40.8751 17.518247,-8.58738 35.035457,-17.17424 52.553707,-25.76162 8.12938,11.79333 16.25827,23.58595 24.38766,35.37929 -11.33534,14.6558 -22.67023,29.311 -34.00534,43.9665 9.15987,2.40447 18.3192,4.80879 27.47907,7.21325 13.7398,-5.49592 27.47878,-10.99151 41.21859,-16.48743 11.22085,7.67139 22.44101,15.34232 33.66185,23.01371 -10.87734,9.61786 -21.75404,19.23515 -32.63138,28.85302 -13.85431,5.38142 -27.70806,10.76263 -41.56209,16.14395 26.22013,22.09819 52.4387,44.19506 78.65881,66.29324 -10.64834,5.38142 -21.29606,10.76252 -31.9444,16.14394 -38.58596,-14.65579 -77.16961,-29.3107 -115.755556,-43.96649 -11.449833,5.26692 -22.898984,10.53353 -34.34882,15.80046 -20.037216,9.04537 -40.073239,18.0902 -60.1104476,27.13557 1.3739799,-9.50336 2.7478784,-19.00616 4.1218589,-28.50953 C 18.373308,621.52408 39.554657,600.22824 60.736437,578.93196 29.020385,572.86355 -2.69375,566.7955 -34.409816,560.72709 c 6.52641,-9.61787 13.052424,-19.23515 19.578831,-28.85302 20.4952101,3.09146 40.989602,6.18279 61.484403,9.27418 C 35.432576,526.83596 24.212183,512.52423 12.991566,498.21222 10.243606,480.00699 7.4957537,461.80246 4.7478474,443.59758 Z"
         transform="translate(33.401691,-7.6099255)"
         sodipodi:nodetypes="ccccccccccccccccccccccc"
         inkscape:label="cell" />
      <g
         id="g30"
         transform="rotate(-6.3683055,153.00755,461.87925)"
         inkscape:label="eye1"
         style="display:inline">
        <path
           style="opacity:1;fill:#f6f6f6;fill-opacity:1;fill-rule:nonzero;stroke:#74ebeb;stroke-width:0;stroke-linecap:square;stroke-linejoin:round;stroke-dasharray:none;stroke-opacity:1"
           id="path24"
           d="m 90.39083,510.63727 c -3.758996,0.25278 -6.999538,2.57709 -9.314499,5.95322 -0.508329,0.74133 -0.915267,1.56883 -1.372901,2.35326 -1.935585,3.91187 -2.81538,8.34495 -2.611238,12.84634 0.03818,0.84206 0.151924,1.6772 0.227867,2.5158 0.637181,4.44864 2.137386,8.69261 4.654161,12.16727 0.522376,0.7212 1.127153,1.35653 1.690731,2.03483 2.929644,3.05792 6.51402,4.71096 10.470193,4.6031 0.652904,-0.0172 1.300761,-0.13768 1.951141,-0.20629 2.678101,-0.55072 5.218895,-1.51019 7.316845,-3.61338 1.5082,-1.51193 1.84811,-2.49368 2.84583,-4.4102 1.7324,-4.32303 2.0306,-8.4839 1.76945,-13.16978 -0.32925,-4.07157 -1.4491,-7.93057 -2.93643,-11.61093 -1.28162,-3.17677 -3.11709,-5.68967 -5.429792,-7.90909 -1.964175,-1.71281 -4.268134,-2.95151 -6.755576,-3.1074 -0.551692,-0.0346 -1.10483,0.0208 -1.657246,0.0334 -4.613161,0.82426 -6.727146,4.05789 -8.607492,8.6354 -1.401233,3.68891 -1.488511,7.63263 -1.157864,11.57143 0.341751,3.60989 1.182731,7.09926 2.371703,10.44843 1.635774,3.82056 4.40214,6.9755 8.24648,7.39388 0.825662,0.0897 1.655813,-0.11114 2.483722,-0.1667 0.861303,-0.39346 1.77813,-0.65214 2.583913,-1.18042 2.699763,-1.77 3.883162,-5.10612 4.691582,-8.35729 0.69537,-3.16464 0.74724,-5.94103 0.2159,-9.13281 -0.50246,-2.06979 -1.22429,-4.1434 -2.513787,-5.73767 -0.292641,-0.36178 -0.626925,-0.67514 -0.940385,-1.01269 -2.212748,-1.90869 -4.784928,-2.34424 -7.401779,-0.9908 -1.709889,0.88435 -2.085786,1.96925 -3.001255,3.58536 -0.864323,3.00696 -0.459242,1.14059 -0.728281,3.86023 -0.05629,10.53859 12.807147,10.63082 12.863427,0.092 v 0 c -0.0645,0.5231 -0.15428,1.04283 -0.19339,1.56929 -0.0175,0.23519 0.0847,-0.46167 0.12823,-0.6922 0.006,-0.0346 -0.0113,0.0697 -0.0172,0.10464 -0.0264,0.15142 -0.0543,0.30344 -0.0988,0.44908 -0.11176,0.36554 -0.242844,0.72273 -0.364273,1.0841 -0.86261,1.48033 -1.223093,2.47474 -2.820588,3.2694 -2.236279,1.11239 -4.573562,0.95795 -6.466866,-0.75383 -0.110595,-0.12851 -1.31117,-1.47202 -1.004525,-1.60594 0.02657,-0.0393 0.07399,-0.16822 0.07975,-0.11838 0.07935,0.68429 -0.04986,1.42695 -0.143712,2.09725 -0.04441,0.22893 -0.157142,0.4561 -0.127945,0.68834 0.0034,0.0267 0.04752,-0.0153 0.06447,-0.0342 0.197559,-0.22267 0.359364,-0.48974 0.575921,-0.68718 0.975957,-0.88983 1.160666,-0.76581 2.462773,-1.18936 1.193362,0.067 2.156781,0.0808 3.072757,1.11537 0.161955,0.18312 0.566294,0.66178 0.340668,0.67988 -0.06724,0.006 -0.09871,-0.10636 -0.148054,-0.15945 -0.770701,-1.94122 -1.159357,-4.05142 -1.415568,-6.15944 -0.128786,-1.27725 -0.29305,-2.61461 0.07233,-3.85883 0.0886,-0.26798 0.216366,-0.52475 0.25596,-0.80793 0.004,-0.0298 -0.0072,-0.094 -0.03012,-0.0812 -0.908926,0.50227 -1.357465,0.98131 -2.419585,0.94937 -0.158269,-0.0208 -0.318416,-0.0298 -0.47486,-0.0638 -0.316143,-0.0708 -0.779537,-0.60648 -0.07726,-0.11056 0.843786,0.69573 1.431979,1.59831 1.87136,2.69504 0.846613,2.00181 1.489438,4.10762 1.725008,6.33261 0.143628,1.65681 0.09394,3.27727 -0.235612,4.90696 0.143477,0.21255 0.803637,-0.24382 0.930889,-0.25545 0.12298,-0.0115 -0.210373,0.15104 -0.322928,0.20955 -0.197097,0.10254 -0.705835,0.30495 -0.93462,0.39807 -0.972257,0.23995 -0.942463,0.57049 -1.888458,-0.15085 -0.41648,-0.42269 -0.821171,-0.78855 -1.156395,-1.30757 -0.776152,-1.20169 -1.214352,-2.68149 -1.49438,-4.12821 -0.266609,-1.87645 -0.288701,-3.79913 0.454829,-5.54444 0.152615,-0.34872 0.324233,-0.68758 0.453034,-1.04897 0.02263,-0.0638 0.02642,-0.135 0.04633,-0.20002 0.01565,-0.051 0.104436,-0.13119 0.05971,-0.14665 -0.19298,-0.0674 -0.411787,0.0724 -0.604102,-0.0298 9.095663,-0.0894 8.986659,-14.99288 -0.109013,-14.90358 z"
           inkscape:label="white" />
        <path
           style="display:inline;opacity:1;fill:#000001;fill-opacity:1;fill-rule:nonzero;stroke:#84eb8b;stroke-width:0;stroke-linecap:square;stroke-linejoin:round;stroke-dasharray:none;stroke-opacity:1"
           id="path26"
           d="m 87.445495,509.41454 c -1.421763,0.88918 -2.775039,1.93607 -4.021267,3.12888 -0.286257,0.27394 -0.558635,0.5669 -0.837955,0.8503 -0.854268,0.94158 -1.686574,1.92001 -2.384633,3.02476 -0.333972,0.52853 -0.52148,0.88848 -0.820634,1.43345 -0.640479,1.12968 -1.174682,2.32756 -1.674461,3.54662 -0.310936,0.81334 -0.607683,1.63716 -0.842761,2.48485 -0.149939,0.54065 -0.190125,0.75227 -0.312146,1.29819 -0.259531,1.14208 -0.380657,2.31368 -0.449788,3.48911 -0.03638,1.23011 0.03317,2.45918 0.139809,3.6823 0.07278,0.99088 0.221358,1.96819 0.397036,2.94037 0.158741,0.92048 0.366114,1.82698 0.597213,2.72611 0.242969,0.95428 0.541068,1.88677 0.872863,2.80385 0.351964,1.00782 0.821565,1.94311 1.323795,2.85792 0.450237,0.83818 0.937499,1.64687 1.450046,2.4351 0.525063,0.77742 1.088781,1.51869 1.647465,2.26366 0.38404,0.50692 0.788595,0.99109 1.242384,1.41495 0.194627,0.18178 0.54532,0.47636 0.746804,0.64789 0.766591,0.64463 1.579408,1.21088 2.403563,1.75003 0.665345,0.45076 1.393144,0.7431 2.129194,0.99329 0.863797,0.26529 1.754702,0.36697 2.642126,0.4582 0.752251,0.0903 1.50811,0.0899 2.262543,0.0498 0.587126,-0.0393 1.172906,-0.0989 1.757352,-0.17415 0.542496,-0.0493 1.076855,-0.17166 1.601493,-0.33534 0.499949,-0.169 0.973427,-0.4157 1.432126,-0.69823 0.406403,-0.25546 0.816183,-0.50305 1.215622,-0.77305 0.374316,-0.24652 0.756336,-0.47728 1.137516,-0.70923 0.31366,-0.17014 0.63527,-0.32003 0.95483,-0.47472 0.48565,-0.23877 0.93816,-0.55447 1.36432,-0.91254 0.44578,-0.40924 0.79363,-0.9305 1.14134,-1.44582 0.23209,-0.31581 0.48038,-0.61476 0.71384,-0.92955 0.3323,-0.43004 0.58519,-0.92565 0.81611,-1.43394 0.23754,-0.58773 0.45397,-1.18783 0.6494,-1.79607 0.18868,-0.58585 0.35317,-1.1815 0.52633,-1.77362 0.20209,-0.637 0.38864,-1.28014 0.5595,-1.92924 0.18196,-0.68711 0.31829,-1.38802 0.43284,-2.09383 0.0956,-0.64453 0.21014,-1.28496 0.31881,-1.92665 0.13854,-0.79123 0.19838,-1.59578 0.23026,-2.40096 0.038,-1.03748 -0.0193,-2.07224 -0.14868,-3.09845 -0.14016,-0.9962 -0.29984,-1.98754 -0.50602,-2.96832 -0.20759,-1.05736 -0.48613,-2.09157 -0.77683,-3.12131 -0.31798,-1.24356 -0.7655,-2.42855 -1.22652,-3.60732 -0.47071,-1.20576 -0.95716,-2.40306 -1.48479,-3.57682 -0.30542,-0.66288 -0.60641,-1.3326 -0.98173,-1.94748 -0.22074,-0.36161 -0.40542,-0.6146 -0.64425,-0.95577 -0.38855,-0.52624 -0.73644,-1.09409 -1.14313,-1.6025 -0.32336,-0.40426 -0.39647,-0.46133 -0.74974,-0.8234 -0.64884,-0.61749 -1.3604,-1.13676 -2.070205,-1.65319 -0.499179,-0.36959 -0.999414,-0.73795 -1.539176,-1.02438 -0.362141,-0.19226 -0.5496,-0.26232 -0.919958,-0.41917 -0.772517,-0.3136 -1.579642,-0.47022 -2.388566,-0.59017 -0.5827,-0.0834 -1.166677,-0.15391 -1.750892,-0.22118 -0.695935,-0.0894 -1.393225,-0.0409 -2.085793,0.0563 -0.607531,0.0844 -1.201138,0.25099 -1.779132,0.48032 -0.424108,0.19137 -0.851339,0.41705 -1.201848,0.76143 -0.124445,0.12221 -0.234171,0.2635 -0.351272,0.39504 -1.246875,1.53479 0.62651,3.57785 1.873384,2.04306 v 0 c -0.002,-0.01 -0.01228,-0.0208 -0.0062,-0.0298 0.144403,-0.17204 0.346781,-0.26351 0.53248,-0.35505 0.403426,-0.16785 0.8225,-0.27363 1.247612,-0.3368 0.503274,-0.0737 1.009569,-0.11572 1.515868,-0.0487 0.560947,0.0647 1.121681,0.13213 1.681194,0.21193 0.620723,0.0909 1.241682,0.20092 1.836279,0.43549 0.265356,0.11036 0.412172,0.16479 0.66878,0.29568 0.459571,0.2343 0.874894,0.56287 1.299379,0.86999 0.595323,0.43291 1.193197,0.8656 1.744559,1.37248 0.204094,0.20331 0.312183,0.2996 0.496247,0.52788 0.39105,0.48498 0.72034,1.03282 1.09414,1.53479 0.13247,0.18809 0.36918,0.5179 0.49518,0.72076 0.32746,0.52716 0.58011,1.10983 0.84552,1.67976 0.50659,1.12481 0.97088,2.27386 1.42284,3.42934 0.21878,0.5593 0.44853,1.11647 0.64186,1.68862 0.10324,0.30552 0.23679,0.76598 0.32691,1.07518 0.0524,0.17969 0.10388,0.35993 0.15587,0.53992 0.27041,0.95756 0.5312,1.91859 0.7229,2.90233 0.18891,0.89163 0.33093,1.79385 0.46047,2.69944 0.11026,0.83671 0.1511,1.68157 0.12314,2.528 -0.0239,0.65679 -0.0722,1.3132 -0.18462,1.9586 -0.11004,0.65003 -0.22607,1.29877 -0.32296,1.9517 -0.0962,0.5981 -0.21119,1.192 -0.36521,1.77415 -0.16269,0.61986 -0.3429,1.23302 -0.53512,1.84147 -0.16556,0.56655 -0.32287,1.13648 -0.50299,1.69721 -0.15457,0.49053 -0.33469,0.97031 -0.51615,1.44817 -0.13813,0.30959 -0.2842,0.6148 -0.48866,0.87375 -0.25826,0.34961 -0.53902,0.67572 -0.78802,1.03446 -0.20484,0.30359 -0.40425,0.6135 -0.64267,0.88372 -0.25372,0.22624 -0.53665,0.40718 -0.82778,0.56 -0.38971,0.18866 -0.78254,0.37031 -1.16131,0.58738 -0.414837,0.25338 -0.831415,0.50348 -1.238185,0.774 -0.370752,0.25189 -0.753331,0.47862 -1.130311,0.71773 -0.289486,0.18083 -0.587102,0.34043 -0.90236,0.45299 -0.391963,0.1308 -0.796383,0.20776 -1.202705,0.2465 -0.529888,0.0685 -1.060966,0.12259 -1.593248,0.15925 -0.638523,0.0355 -1.278231,0.0367 -1.914904,-0.0414 -0.720851,-0.0737 -1.445053,-0.14914 -2.149407,-0.35087 -0.547413,-0.18294 -1.091161,-0.39124 -1.584952,-0.72783 -0.735036,-0.47963 -1.46019,-0.98327 -2.144475,-1.55616 -0.287328,-0.24441 -0.587343,-0.48016 -0.854275,-0.75509 -0.153338,-0.15792 -0.331056,-0.37543 -0.469488,-0.54755 -0.08305,-0.10312 -0.164193,-0.20866 -0.24626,-0.31284 -0.519719,-0.69292 -1.044109,-1.38235 -1.535188,-2.10302 -0.472262,-0.72511 -0.920188,-1.46984 -1.334236,-2.24166 -0.425154,-0.77257 -0.827072,-1.55803 -1.122033,-2.41156 -0.297285,-0.81736 -0.562022,-1.64954 -0.779158,-2.50054 -0.211118,-0.8199 -0.400659,-1.64637 -0.544725,-2.48606 -0.157445,-0.86963 -0.292392,-1.74309 -0.355481,-2.62989 -0.09306,-1.05724 -0.154903,-2.11908 -0.132387,-3.18258 0.0559,-0.99195 0.155577,-1.9808 0.374246,-2.94463 0.09126,-0.41341 0.140111,-0.66013 0.251665,-1.0657 0.204815,-0.74461 0.465174,-1.46772 0.736049,-2.18262 0.454151,-1.10979 0.937846,-2.20082 1.52261,-3.22777 0.245954,-0.45048 0.416271,-0.77696 0.68664,-1.21168 0.59385,-0.95485 1.31673,-1.78904 2.044929,-2.60471 0.241578,-0.2471 0.476865,-0.50288 0.72477,-0.74153 1.154105,-1.11092 2.411255,-2.07984 3.732353,-2.90175 1.571264,-1.06226 0.274644,-3.63687 -1.29662,-2.57459 z"
           inkscape:label="outline" />
        <path
           style="opacity:1;fill:#000001;fill-opacity:1;fill-rule:nonzero;stroke:#84eb8b;stroke-width:0;stroke-linecap:square;stroke-linejoin:round;stroke-dasharray:none;stroke-opacity:1"
           id="path27"
           d="m 92.400568,523.92054 c -1.307259,-0.57062 -2.636203,-0.2656 -3.756825,0.71234 -0.281226,0.24533 -0.51086,0.56704 -0.766292,0.85053 -1.102563,1.51684 -1.797911,3.37569 -2.050427,5.36893 -0.04963,0.39177 -0.06427,0.78866 -0.09642,1.18305 0.0011,1.79851 0.318209,3.55407 1.004833,5.15632 0.417205,0.9736 0.634822,1.24962 1.17179,2.11108 0.31136,0.34881 0.600707,0.72872 0.934077,1.04665 1.01242,0.96555 2.217085,1.53806 3.486724,1.77871 1.053077,0.19972 1.303058,0.1035 2.348562,0.004 1.383764,-0.29212 2.667798,-0.95073 3.682038,-2.14892 0.605462,-0.71528 0.728306,-1.05462 1.173543,-1.90168 0.750449,-1.77353 0.950519,-3.31867 0.682579,-5.30372 -0.17796,-1.31838 -0.383062,-1.81126 -0.761081,-3.05578 -0.657151,-1.84113 -1.541781,-3.56906 -2.800846,-4.90238 -0.281501,-0.29838 -0.571234,-0.59212 -0.894226,-0.82095 -0.383252,-0.27155 -0.807879,-0.44746 -1.21182,-0.67129 -0.408365,-0.10216 -0.810003,-0.25784 -1.225084,-0.3072 -1.341655,-0.16002 -2.555335,0.24533 -3.671669,1.14819 -0.925292,0.74831 -1.153528,1.24131 -1.848377,2.26742 -0.220226,0.4769 -0.4708,0.93517 -0.660613,1.43074 -0.541062,1.41254 -0.843209,3.01717 -0.745865,4.57774 0.09368,1.50179 0.287687,1.75846 0.758365,3.13045 0.274136,0.45505 0.505001,0.95305 0.822382,1.36516 1.213693,1.57596 3.114427,2.57358 4.911545,2.28709 0.441887,-0.0703 0.858553,-0.28913 1.287827,-0.43422 0.469406,-0.48742 1.005798,-0.89435 1.408212,-1.46232 0.321227,-0.45312 0.532641,-1.01047 0.73099,-1.55674 0.541829,-1.49223 0.727488,-3.24972 0.598964,-4.8644 -0.04242,-0.53273 -0.157225,-1.0534 -0.235791,-1.58008 -0.348773,-1.15756 -0.445422,-1.78882 -1.117717,-2.76042 -0.919698,-1.32927 -2.303611,-2.1481 -3.766084,-1.80187 -0.509327,0.12011 -0.957504,0.48366 -1.436265,0.7255 -0.383445,0.46915 -0.827309,0.87583 -1.15037,1.40689 -1.147375,1.88602 -1.451742,4.84843 -0.655682,6.99313 0.214541,0.57797 0.56817,1.06507 0.852255,1.59768 0.421362,0.37618 0.783435,0.87586 1.264088,1.12807 1.718199,0.90157 3.384505,0.22087 4.514739,-1.49813 0.806027,-1.22586 0.757619,-1.91476 0.987215,-3.39039 -0.08187,-1.28128 0.01161,-2.23845 -0.703288,-3.33656 -0.338677,-0.5203 -0.746325,-1.10799 -1.283454,-1.24165 -0.770135,-0.19168 -1.616993,-0.0298 -2.342267,0.33934 -0.81106,0.4097 -1.268368,1.83091 -1.622225,2.68849 -0.228227,0.83793 -0.296173,0.98284 -0.422891,1.7577 -0.02238,0.13596 -0.157444,0.37665 -0.04636,0.41159 1.265266,0.39413 2.564211,0.65327 3.86685,0.77901 0.119481,0.01 0.09415,-0.26709 0.15625,-0.39084 0.03211,-0.0642 0.08276,-0.11171 0.124142,-0.16785 -0.992224,1.12589 -0.86903,1.40546 -2.808881,0.18599 -0.275201,-0.17281 -0.379536,-0.64431 -0.392302,-1.01825 -0.02974,-0.86802 0.363644,-1.73394 1.106081,-1.93778 0.340828,-0.0934 0.695474,0.0859 1.043213,0.1287 -0.160978,0.76107 0.413713,0.27185 0.568209,0.47919 0.382746,0.51354 -0.461698,1.2598 -0.698639,1.34546 -0.3521,0.12755 -0.734852,-0.0239 -1.102281,-0.0378 -0.08591,-0.19733 -0.389396,-0.13882 -0.500999,-0.3229 -0.214154,-0.35402 0.01853,-0.96489 0.246392,-1.17885 0.369007,-0.34646 0.835739,-0.58009 1.301382,-0.63154 0.308424,-0.033 0.580392,0.26111 0.870591,0.39174 0.07576,0.0878 0.162645,0.16365 0.22725,0.2638 0.04868,0.0754 0.106287,0.15944 0.108054,0.25515 0.02575,1.41584 -0.424759,2.00825 -2.064901,2.25343 -0.01161,0.002 -0.868984,-0.62298 -1.258421,-0.90648 -0.0074,0.0479 -0.0082,0.19018 -0.02238,0.14454 -0.219171,-0.70292 0.956986,-1.84532 0.975295,-1.85021 0.781288,-0.20688 1.582816,0.34506 2.331777,0.68377 0.120524,0.0542 0.224497,0.48658 0.274441,0.67226 -0.0847,2.25076 -3.311564,2.17283 -3.431232,-0.0957 2.539726,-1.86236 1.847271,-2.59875 3.604751,-0.46021 0.20003,0.24354 0.07998,0.87213 -0.05311,1.04931 -0.258488,0.34413 -0.61395,0.56048 -0.920923,0.84076 -0.385913,-0.0298 -0.785379,0.0378 -1.157716,-0.0873 -0.217498,-0.0737 -0.375659,-0.3059 -0.544061,-0.4873 -0.29919,-0.32223 -0.303922,-0.98212 -0.08922,-1.3623 0.189713,-0.3361 0.496095,-0.55027 0.744141,-0.82537 0.683713,-0.152 1.135446,-0.26976 1.658906,0.34411 0.07039,0.0825 0.204223,0.29451 0.181738,0.42813 -0.05239,0.31045 -0.172476,0.5985 -0.258712,0.89778 -0.174148,0.16689 -0.32776,0.37143 -0.522443,0.50143 -0.351003,0.23459 -0.879095,0.12107 -1.152116,-0.22654 -0.286236,-0.36391 -0.246622,-0.51247 -0.300284,-0.96848 0.05545,-0.20835 0.06576,-0.44322 0.16638,-0.62577 0.443218,-0.80344 0.968621,-0.81169 1.801735,-0.71881 0.194421,0.0239 0.370099,0.18274 0.510838,0.346 0.358677,0.41583 0.340085,0.5827 0.411881,1.055 -0.03324,0.15715 -0.02632,0.33609 -0.09988,0.47157 -0.415397,0.76518 -1.154865,1.09375 -1.849722,0.64464 -0.334293,-0.2161 -0.420006,-0.42623 -0.592014,-0.74693 -0.01801,-0.0817 -0.05042,-0.1604 -0.05385,-0.24503 -0.02496,-0.62261 0.656008,-0.8482 1.036987,-0.86042 0.274582,-0.01 0.480751,0.13901 0.705123,0.27604 0.0247,-0.01 0.0574,2e-5 0.07359,-0.0239 0.02896,-0.0424 0.03016,-0.10407 0.04836,-0.1541 0.036,-0.0999 0.116182,-0.30363 0.177287,-0.38282 0.01775,-0.0239 0.06544,-0.0657 0.07263,-0.033 0.01212,0.0516 -0.03016,0.10082 -0.04524,0.15085 -0.554324,0.43376 -0.501068,0.53818 -1.178544,0.50612 -0.122778,-0.004 -0.236769,-0.0793 -0.355191,-0.11897 2.428349,1.60059 4.305033,-2.54142 1.876686,-4.14199 v 0 c -0.239676,-0.11915 -0.463972,-0.30197 -0.719029,-0.35874 -1.130373,-0.25188 -1.151745,-0.01 -2.187304,0.54704 -0.208006,0.25188 -0.44176,0.47616 -0.623947,0.75554 -0.763987,1.17159 -1.100573,2.85727 -0.873942,4.3207 0.06642,0.42906 0.215671,0.83306 0.323491,1.24962 0.580819,0.99071 0.779346,1.66428 1.87846,2.02377 1.386886,0.4536 2.748007,-0.39367 3.385901,-1.88868 0.189534,-0.44417 0.245979,-0.95397 0.368929,-1.43094 -0.08695,-1.40351 0.06851,-2.00913 -0.881728,-3.13511 -0.693332,-0.8216 -1.735617,-1.03875 -2.640319,-0.67163 -0.425262,0.17281 -0.797413,0.53418 -1.103134,0.93031 -0.259244,0.33562 -0.364861,0.80534 -0.547287,1.20798 -0.124731,1.28435 -0.335899,1.75281 0.3323,2.99888 0.642776,1.19856 1.667893,1.45646 2.816121,1.17633 0.940496,-0.22952 1.204586,-1.25449 1.584155,-2.09353 0.03169,-0.44464 0.140313,-0.89094 0.09506,-1.33383 -0.150663,-1.47585 -1.035343,-2.69382 -2.24035,-3.04064 -0.382903,-0.10999 -0.797407,-0.14302 -1.180595,-0.033 -0.460645,0.1308 -0.855267,0.48879 -1.282901,0.73319 -0.274835,0.5262 -0.637999,0.99879 -0.824567,1.57861 -0.12781,0.39697 -0.117966,0.84816 -0.09308,1.27311 0.07712,1.3166 0.765039,2.78793 1.87363,3.2136 0.468699,0.17969 0.982762,0.0533 1.474143,0.0802 0.422814,-0.34596 0.931081,-0.57528 1.268441,-1.03812 0.941639,-1.29196 0.554476,-4.09085 -0.730317,-4.88891 -0.485364,-0.30163 -1.070736,-0.25815 -1.606103,-0.38706 -0.454242,0.32059 -0.979253,0.527 -1.362726,0.96178 -0.373392,0.42338 -0.607871,1.41972 -0.619018,2.04539 -0.0067,0.37191 -0.07186,0.792 0.0865,1.11133 0.350262,0.70637 0.690794,1.80409 1.372815,1.8317 0.970866,0.0378 1.70885,-1.11487 2.563273,-1.67225 0.04003,-0.29212 0.112009,-0.58019 0.120103,-0.87597 0.0229,-0.84439 -0.170907,-2.23422 -0.901175,-2.63749 -1.530804,-0.84545 -2.43625,-0.48482 -3.174293,0.9095 -0.169827,0.32093 -0.205587,0.71973 -0.308387,1.07963 -0.0088,0.36014 -0.07172,0.72407 -0.02575,1.07987 0.217499,1.68392 0.91961,2.69662 2.889339,2.39815 1.026288,-0.15524 1.329642,-1.75516 1.353846,-2.69997 0.0082,-0.31438 -0.04446,-0.62704 -0.06671,-0.94056 -0.259946,-1.04565 -0.459393,-2.57331 -1.771294,-2.68867 -2.156847,-0.1898 -3.050052,1.89043 -2.468251,3.86259 0.125521,0.42578 0.356169,0.79491 0.534267,1.19234 0.462358,0.35496 0.844105,0.97467 1.387076,1.0655 1.878822,0.31438 3.051559,-1.39902 2.948835,-3.4619 -0.02743,-0.55015 -0.119295,-1.11305 -0.32134,-1.60727 -0.217782,-0.53273 -0.606478,-0.9359 -0.909713,-1.40383 -0.618948,-0.21194 -1.214759,-0.68397 -1.856846,-0.6352 -0.551532,0.0424 -1.062598,0.45926 -1.485012,0.88897 -0.875307,0.89056 -1.140708,3.00393 -0.694127,4.22922 0.206435,0.56647 0.57782,1.02268 0.866733,1.53406 0.569455,0.23132 1.107545,0.70293 1.708365,0.69376 1.234411,-0.0208 2.150425,-1.2512 2.308582,-2.65414 0.07224,-0.64083 0.02743,-1.46342 -0.378635,-1.88569 -1.923767,-2.00004 -2.233892,-1.16793 -3.566938,-0.0298 -0.143174,0.27067 -0.299036,0.5321 -0.42953,0.81192 -0.09452,0.2027 -0.417031,0.52972 -0.244049,0.63251 1.147792,0.68171 2.458043,0.86588 3.659547,1.39615 0.05414,0.0239 -0.04355,0.27274 -0.03172,0.20478 0.108105,-0.61882 -0.01498,-0.0298 0.16633,-0.82882 0.03874,-0.14551 0.144285,-0.28704 0.115845,-0.43564 -0.01565,-0.0825 -0.138546,-0.0298 -0.207362,-0.0426 -0.442598,-0.10407 -0.919969,-0.0838 -1.326768,-0.31828 -0.181816,-0.10483 -0.250354,-0.39368 -0.310227,-0.62592 -0.01498,-0.0575 0.0934,-0.15677 0.12118,-0.10635 0.08374,0.1518 0.07489,0.35261 0.112396,0.52868 0.01363,0.14818 0.03833,0.2954 0.04067,0.44417 0.0016,0.10216 -0.07672,0.43281 0.01981,0.5592 0.0882,0.11572 0.408316,0.1858 0.35973,0.45975 -0.01262,0.0716 -0.11529,0.0472 -0.17294,0.0689 -0.08274,-0.0575 -0.190948,-0.0812 -0.248243,-0.17377 -0.102988,-0.16613 -0.162577,-0.36863 -0.211298,-0.56718 -0.128248,-0.52332 -0.110494,-0.86575 -0.01878,-1.39994 0.03522,-0.20389 0.114314,-0.39368 0.154987,-0.59574 0.01878,-0.0939 0.01548,-0.19317 0.0229,-0.28914 -0.0282,-0.0563 -0.304749,-0.44887 -0.124697,-0.49015 0.373545,-0.0857 0.65216,0.89428 0.731003,1.11958 0.05338,0.26141 0.127692,0.51851 0.160104,0.78517 0.07029,0.57873 0.05309,1.20988 -0.02033,1.78613 -0.03404,0.26709 -0.08937,0.52991 -0.150781,0.78966 -0.04579,0.19345 -0.184696,0.36772 -0.170212,0.56818 0.0074,0.10101 0.147903,0.0974 0.221821,0.1455 -0.04963,0.0575 -0.0869,0.13615 -0.148879,0.17281 -0.50202,0.29302 -1.288109,-0.12335 -1.687389,-0.49836 -0.122021,-0.11476 -0.220175,-0.26202 -0.330261,-0.39325 -0.233837,-0.49152 -0.326392,-0.58885 -0.406696,-1.17205 -0.14999,-1.08911 0.181815,-2.16101 0.582873,-3.11466 0.381218,-0.65874 0.287606,-0.57019 0.752162,-1.10243 0.455824,-0.52218 0.814845,-0.59928 1.431001,-0.52894 0.12224,0.033 0.253954,0.033 0.3667,0.1014 0.173583,0.10197 0.327951,0.24831 0.477899,0.39508 0.857524,0.83924 1.425289,1.99127 1.87269,3.1905 0.3069,0.93991 0.541697,1.66431 0.628424,2.67724 0.01599,0.18503 0.03207,0.37239 0.01801,0.55802 -0.02743,0.3658 -0.147028,0.67591 -0.253567,1.01267 -0.487647,1.08452 -0.87393,1.48653 -1.894719,1.79914 -0.177493,0.033 -0.353314,0.0819 -0.532388,0.0939 -0.570875,0.0378 -1.284148,-0.0787 -1.810516,-0.36059 -0.36721,-0.19643 -0.622571,-0.45784 -0.936519,-0.74278 -0.12845,-0.19435 -0.265095,-0.38188 -0.38529,-0.58385 -0.600291,-1.00957 -0.927103,-2.16309 -0.995873,-3.40181 0.01212,-0.22446 0.01363,-0.45032 0.03638,-0.67363 0.107919,-1.05892 0.423787,-2.07575 0.961006,-2.92598 0.05954,-0.0915 0.119009,-0.18293 0.178497,-0.27483 -0.0022,-0.033 -0.01775,-0.0722 -0.0067,-0.10426 0.01853,-0.0558 0.129611,-0.11648 0.128063,-0.12546 -0.0069,-0.0378 -0.08148,-0.0298 -0.08155,-0.0689 -8.7e-5,-0.033 0.05429,0.0115 0.08145,0.0239 2.563589,1.25683 4.037275,-3.11582 1.473686,-4.37264 z"
           inkscape:label="pupil" />
        <path
           style="opacity:1;fill:#f6f6f6;fill-opacity:1;fill-rule:nonzero;stroke:#84eb8b;stroke-width:0;stroke-linecap:square;stroke-linejoin:round;stroke-dasharray:none;stroke-opacity:1"
           id="path28"
           d="m 99.464825,527.11119 c 0.0034,-0.004 0.0098,-0.0267 0.0098,-0.0172 0.0034,0.55021 -0.594899,0.78178 -0.899181,0.95693 -0.328219,-0.0267 -0.673779,0.0479 -0.984685,-0.0802 -0.623017,-0.25666 -1.037198,-0.99014 -0.975677,-1.74426 0.08286,-0.46505 0.441656,-0.72598 0.809694,-0.84685 0.09257,-0.0302 0.190922,-0.0267 0.286353,-0.0388 0.509339,0.0114 0.864408,0.51581 1.054347,1.03923 0.134575,0.51247 -0.01228,1.02338 -0.266854,1.44108 -0.09468,0.14837 -0.230569,0.22624 -0.368834,0.30613 -0.771417,0.22655 -0.965762,0.2334 -1.5705,-0.30053 -0.423776,-0.50927 -0.591294,-1.11932 -0.476139,-1.81785 0.05839,-0.28855 0.199773,-0.52871 0.377342,-0.72988 0.338006,-0.31737 0.774223,-0.48257 1.20486,-0.37815 0.09984,0.0267 0.195812,0.0674 0.293713,0.10082 0.551724,0.29968 1.055495,0.98423 1.000588,1.74548 -0.0072,0.0993 -0.02548,0.19672 -0.03791,0.2945 -0.282801,1.08476 -1.147964,1.70378 -2.096475,1.41753 -0.173121,-0.0521 -0.324958,-0.17644 -0.487428,-0.2647 -0.611053,-0.56266 -0.807479,-1.18359 -0.664543,-2.07791 0.06241,-0.25037 0.16633,-0.48513 0.326987,-0.66481 0.209857,-0.21939 0.454533,-0.25695 0.72247,-0.31864 0.638051,0.0798 0.981344,0.004 1.480655,0.72237 0.545147,0.78291 0.543459,1.62902 0.183051,2.45677 -0.03971,0.0915 -0.101676,0.16632 -0.152531,0.24919 -0.649886,0.82107 -1.764808,0.93659 -2.437951,0.14168 -0.275769,-0.32599 -0.281388,-0.48799 -0.3974,-0.89491 -0.0047,-0.17376 -0.03044,-0.34884 -0.01447,-0.52194 0.04998,-0.54656 0.365153,-1.09911 0.793857,-1.32459 0.211528,-0.11113 0.44284,-0.20834 0.673898,-0.19612 0.298824,0.0172 0.577978,0.18369 0.866969,0.27542 0.16187,0.18026 0.343043,0.33846 0.485628,0.54022 0.241143,0.3415 0.293132,0.91286 0.161517,1.31936 -0.03911,0.12068 -0.100717,0.22952 -0.151117,0.34407 -0.0958,0.11744 -0.174123,0.25905 -0.287406,0.35187 -0.529815,0.43302 -1.129922,0.44529 -1.690651,0.0743 -0.34598,-0.22893 -0.40673,-0.46426 -0.589667,-0.84095 -0.02548,-0.11171 -0.06043,-0.22118 -0.07615,-0.33546 -0.179139,-1.30089 0.891129,-2.00949 1.999498,-2.23917 0.732082,-0.1518 1.050415,0.62817 1.32443,1.16253 0.166633,0.55761 0.139438,1.21519 -0.21948,1.67378 -0.134761,0.17205 -0.272289,0.376 -0.46188,0.44287 -0.400496,0.1413 -0.830672,0.10636 -1.246012,0.16002 -0.233347,-0.15658 -0.491059,-0.27035 -0.700077,-0.46949 -0.339058,-0.3234 -0.451714,-0.81639 -0.437828,-1.29845 -0.04431,0.10426 0.08207,-0.44388 0.05676,-0.33418 -0.01666,0.0729 -0.05136,0.14397 -0.04803,0.21938 0.0088,0.19792 0.269317,1.77168 0.09949,1.28563 -0.162577,-0.55146 0.19913,-1.43064 0.548129,-1.69212 0.426966,-0.31994 0.975581,-0.307 1.463368,-0.46079 0.228152,0.12126 0.473389,0.20449 0.684366,0.36351 0.306544,0.23102 0.543515,0.74265 0.52583,1.17989 -0.0047,0.11992 -0.02972,0.23756 -0.04441,0.35614 -0.206437,0.72668 -0.728766,1.19131 -1.369987,1.17483 -1.411526,-0.25307 -1.981367,-2.37152 -0.871442,-3.59941 0.323544,-0.28883 0.75357,-0.42687 1.155066,-0.31736 0.132,0.0346 0.257355,0.10044 0.386035,0.15085 0.136326,0.10942 0.291685,0.19107 0.408939,0.32813 0.630977,0.7382 0.696576,1.64577 0.302556,2.54183 -0.414356,0.32771 -0.828713,0.65519 -1.24307,0.9828 2.535224,-0.44822 2.002387,-4.71324 -0.532838,-4.26508 v 0 c -0.431765,0.33073 -0.863531,0.66142 -1.295295,0.99209 -0.04433,0.0978 -0.09722,0.19038 -0.132977,0.29332 -0.316945,0.909 -0.166868,1.88495 0.417351,2.59504 0.134946,0.16403 0.314521,0.26559 0.471786,0.39884 0.157629,0.0674 0.310567,0.15314 0.472897,0.20179 0.622113,0.18752 1.267118,-0.0437 1.779691,-0.4667 0.167929,-0.16994 0.584762,-0.55465 0.603901,-0.79655 0.06282,-0.7942 0.0555,-1.61867 -0.118421,-2.38912 -0.0763,-0.33806 -0.685144,-0.70434 -0.967032,-0.82187 -0.122694,-0.0512 -0.253106,-0.0707 -0.379668,-0.10636 -0.112227,-0.01 -0.224163,-0.0302 -0.336702,-0.0302 -0.759079,-0.004 -1.459752,0.39974 -1.911696,1.13469 -0.117882,0.19137 -0.184722,0.42127 -0.277075,0.63166 -0.04353,0.22088 -0.106724,0.4377 -0.130519,0.66281 -0.08909,0.84148 0.191,1.95629 0.774198,2.48727 0.254264,0.2316 0.5678,0.35227 0.851698,0.52838 0.538732,-0.14016 1.139374,-0.0915 1.616184,-0.42088 0.796689,-0.55079 0.81397,-1.92107 0.63148,-2.83483 -0.02792,-0.10311 -0.05405,-0.20657 -0.08367,-0.30877 -0.01178,-0.0432 -0.04276,-0.16536 -0.04098,-0.12183 0.01698,0.41651 0.07325,0.83045 0.0868,1.24735 0.002,0.0611 -0.05425,0.23669 -0.04049,0.17759 0.06964,-0.29838 0.0436,-0.16785 0.09005,-0.48821 0.04185,-0.76336 -0.08554,-1.66726 -0.589692,-2.21653 -0.241091,-0.26262 -0.552475,-0.41609 -0.828716,-0.62392 -0.468361,0.0346 -0.951611,-0.0388 -1.405086,0.10254 -0.249993,0.0793 -0.44432,0.32554 -0.628866,0.54097 -0.446594,0.52181 -0.646265,1.32905 -0.596568,2.05703 0.01565,0.22594 0.07866,0.44349 0.117982,0.6652 0.29016,0.66057 0.624971,1.7059 1.512631,1.58436 1.452748,-0.19882 2.296152,-1.07723 2.155077,-2.54788 -0.01801,-0.18923 -0.0662,-0.373 -0.09929,-0.55933 -0.242558,-0.57986 -0.311074,-0.92495 -0.800808,-1.3087 -0.748976,-0.58693 -1.612943,-0.60999 -2.381441,-0.0668 -0.195707,0.13825 -0.342464,0.35659 -0.513718,0.53511 -0.110965,0.20569 -0.242969,0.39756 -0.332821,0.61715 -0.31586,0.77276 -0.333113,1.94508 0.08776,2.67705 0.172167,0.2997 0.414155,0.5327 0.62123,0.79904 0.349858,0.13901 0.682526,0.37344 1.049559,0.41612 1.034223,0.11953 1.985314,-0.94133 2.162193,-2.09439 0.04032,-0.2626 0.01599,-0.53398 0.02368,-0.80096 -0.141659,-0.63069 -0.134137,-0.87887 -0.520011,-1.39614 -0.276494,-0.37081 -0.868544,-0.85823 -1.311809,-0.82819 -0.468376,0.0302 -0.919018,0.24413 -1.35714,0.44352 -0.115509,0.0527 -0.18202,0.19912 -0.273051,0.29882 -0.06952,0.10827 -0.153036,0.20567 -0.208597,0.32467 -0.185984,0.39846 -0.379394,0.94748 -0.292446,1.4215 0.191488,1.04391 0.465281,1.48143 1.286802,1.89127 0.212996,0.10617 0.458792,0.0638 0.688188,0.0957 0.136426,-0.0302 0.273811,-0.0519 0.409303,-0.0867 0.312201,-0.0798 0.593474,-0.30483 0.849436,-0.51881 0.394076,-0.39322 0.72356,-0.84931 0.882743,-1.44471 0.02827,-0.14837 0.06834,-0.29361 0.0852,-0.44431 0.102366,-0.91381 -0.230235,-1.75002 -0.836057,-2.30046 -0.494523,-0.28556 -0.648609,-0.46548 -1.238121,-0.41266 -0.852606,0.077 -1.480031,0.7807 -1.731255,1.71153 -0.02316,0.14512 -0.05494,0.28885 -0.06942,0.43598 -0.09802,0.99619 0.205227,1.6331 0.815091,2.33869 0.105378,0.12201 0.255061,0.17376 0.382585,0.26082 0.13296,0.0512 0.262758,0.1159 0.398834,0.15371 0.63669,0.17701 1.28037,-0.0456 1.796571,-0.49672 0.381198,-0.398 0.696745,-0.8639 0.831939,-1.45825 0.134273,-0.69103 0.118084,-1.39547 -0.211888,-2.01522 -0.08926,-0.16785 -0.208778,-0.30917 -0.313141,-0.46407 -0.1111,-0.10349 -0.215879,-0.21701 -0.333296,-0.31004 -0.319593,-0.25307 -0.816311,-0.44862 -1.20206,-0.41523 -0.243614,0.0208 -0.480954,0.10159 -0.721423,0.15295 -0.373935,0.19913 -0.712925,0.45556 -0.989992,0.82021 -0.07231,0.10789 -0.15184,0.20925 -0.216984,0.32338 -0.383363,0.67155 -0.47267,1.47784 -0.314883,2.25753 0.144117,0.49604 0.17276,0.71987 0.502078,1.15877 0.43634,0.5815 1.003679,0.82875 1.626785,0.9571 0.573824,-0.004 0.754535,0.0626 1.313685,-0.24562 0.671671,-0.3708 1.086977,-1.07413 1.357559,-1.86106 0.0427,-0.20002 0.10178,-0.39628 0.12813,-0.60069 0.14619,-1.13297 -0.229869,-2.44322 -1.19374,-2.92986 -0.360478,-0.18178 -0.777323,-0.11419 -1.165983,-0.17109 -0.267071,0.13023 -0.548881,0.22387 -0.801166,0.39067 -0.152463,0.10082 -0.277798,0.25368 -0.399033,0.40275 -0.416424,0.51242 -0.659149,1.17551 -0.760276,1.87019 -0.368949,3.01721 3.218031,3.63792 3.586979,0.62067 z"
           inkscape:label="accent1" />
        <path
           style="opacity:1;fill:#f6f6f6;fill-opacity:1;fill-rule:nonzero;stroke:#84eb8b;stroke-width:0;stroke-linecap:square;stroke-linejoin:round;stroke-dasharray:none;stroke-opacity:1"
           id="path29"
           d="m 90.398924,539.00376 c 0.01878,0.0466 0.0072,0.01 -0.01161,0.11476 -0.05318,0.2945 -0.377469,0.42706 -0.588935,0.55332 -0.217035,0.0367 -0.431361,0.12278 -0.651125,0.1138 -0.570145,-0.0239 -1.071319,-0.32702 -1.348474,-0.84591 -0.099,-0.21522 -0.0537,-0.44215 0.02915,-0.65191 0.271433,-0.48946 0.775251,-0.72211 1.294596,-0.6911 0.475303,0.0953 0.816021,0.44715 0.974585,0.92307 0.08884,0.36128 -0.03,0.48525 -0.239623,0.80505 -0.517668,0.53384 -1.296391,0.6614 -1.916014,0.25337 -0.287506,-0.22803 -0.394528,-0.56513 -0.430032,-0.92846 -0.01077,-0.21134 0.04343,-0.38822 0.13656,-0.57243 0.265391,-0.36995 0.671839,-0.51826 1.084107,-0.56502 0.791638,0.0239 1.303983,0.45446 1.689142,1.21131 0.08889,0.17434 0.0973,0.38366 0.145951,0.57549 -0.275892,-3.21622 -4.544125,-2.80046 -4.268225,0.41564 v 0 c 0.05375,0.25127 0.05611,0.52132 0.161214,0.75325 0.490059,1.08139 1.198783,1.51185 2.264017,1.61154 0.141525,-0.01 0.283905,-0.01 0.424616,-0.0267 0.683714,-0.0909 1.312857,-0.46155 1.762321,-1.01444 0.497216,-0.64511 0.834593,-1.37813 0.883546,-2.22389 -0.0034,-0.17434 0.0057,-0.3494 -0.0098,-0.52325 -0.07408,-0.83367 -0.458453,-1.58185 -1.022899,-2.15257 -0.124647,-0.10578 -0.240835,-0.22415 -0.373955,-0.31743 -0.847446,-0.59502 -1.910586,-0.76592 -2.844307,-0.26619 -0.224471,0.12011 -0.417457,0.29779 -0.626217,0.44624 -0.170933,0.21224 -0.35904,0.41016 -0.512715,0.63693 -0.477901,0.70507 -0.601029,1.69958 -0.548589,2.54083 0.03557,0.19196 0.05546,0.38778 0.107077,0.57528 0.31905,1.16004 1.07732,1.9084 2.139393,2.27833 0.177879,0.0363 0.353296,0.0903 0.533583,0.10827 1.14852,0.11418 2.092341,-0.37681 2.775435,-1.34783 0.08602,-0.15467 0.182767,-0.30375 0.258016,-0.46476 0.384371,-0.82316 0.449158,-1.74884 0.252411,-2.63661 -0.05099,-0.1667 -0.08919,-0.33844 -0.153001,-0.49977 -0.400959,-1.01414 -1.192591,-1.81705 -2.260213,-1.9577 -0.332124,-0.0456 -0.66735,0.0548 -1.001027,0.0823 -0.23826,0.10998 -0.490744,0.19056 -0.714835,0.33066 -0.828512,0.5174 -1.346311,1.44441 -1.586473,2.40791 -0.629674,3.15917 3.562822,4.1081 4.19249,0.94897 z"
           inkscape:label="accent2" />
      </g>
      <g
         id="g31"
         inkscape:label="eye"
         transform="rotate(12.566589,130.77164,519.04994)"
         inkscape:transform-center-x="0.69892798"
         inkscape:transform-center-y="4.8924959"
         style="display:inline">
        <path
           style="fill:#f6f6f6;fill-opacity:1;fill-rule:nonzero;stroke:#74ebeb;stroke-width:0;stroke-linecap:square;stroke-linejoin:round;stroke-dasharray:none;stroke-opacity:1"
           id="path24-3"
           d="m 144.73628,513.00876 c -3.75899,0.25278 -6.99954,2.57709 -9.3145,5.95322 -0.50833,0.74133 -0.91526,1.56883 -1.3729,2.35326 -1.93558,3.91187 -2.81538,8.34495 -2.61124,12.84634 0.0382,0.84206 0.15193,1.6772 0.22787,2.5158 0.63718,4.44864 2.13739,8.69261 4.65416,12.16727 0.52238,0.7212 1.12716,1.35653 1.69073,2.03483 2.92965,3.05792 6.51402,4.71096 10.47019,4.6031 0.65291,-0.0172 1.30076,-0.13768 1.95115,-0.20629 2.6781,-0.55072 5.21889,-1.51019 7.31684,-3.61338 1.5082,-1.51193 1.84811,-2.49368 2.84583,-4.4102 1.7324,-4.32303 2.0306,-8.4839 1.76945,-13.16978 -0.32925,-4.07157 -1.4491,-7.93057 -2.93643,-11.61093 -1.28162,-3.17677 -3.11709,-5.68967 -5.42979,-7.90909 -1.96418,-1.71281 -4.26814,-2.95151 -6.75558,-3.1074 -0.55169,-0.0346 -1.10483,0.0208 -1.65724,0.0334 -4.61316,0.82426 -6.72715,4.05789 -8.60749,8.6354 -1.40124,3.68891 -1.48851,7.63263 -1.15787,11.57143 0.34175,3.60989 1.18273,7.09926 2.37171,10.44843 1.63577,3.82056 4.40214,6.9755 8.24648,7.39388 0.82566,0.0897 1.65581,-0.11114 2.48372,-0.1667 0.8613,-0.39346 1.77813,-0.65214 2.58391,-1.18042 2.69976,-1.77 3.88316,-5.10612 4.69158,-8.35729 0.69537,-3.16464 0.74724,-5.94103 0.2159,-9.13281 -0.50246,-2.06979 -1.22429,-4.1434 -2.51379,-5.73767 -0.29264,-0.36178 -0.62692,-0.67514 -0.94038,-1.01269 -2.21275,-1.90869 -4.78493,-2.34424 -7.40178,-0.9908 -1.70989,0.88435 -2.08578,1.96925 -3.00125,3.58536 -0.86433,3.00696 -0.45925,1.14059 -0.72828,3.86023 -0.0563,10.53859 12.80714,10.63082 12.86342,0.092 v 0 c -0.0645,0.5231 -0.15428,1.04283 -0.19339,1.56929 -0.0175,0.23519 0.0847,-0.46167 0.12823,-0.6922 0.006,-0.0346 -0.0113,0.0697 -0.0172,0.10464 -0.0264,0.15142 -0.0543,0.30344 -0.0988,0.44908 -0.11176,0.36554 -0.24284,0.72273 -0.36427,1.0841 -0.86261,1.48033 -1.2231,2.47474 -2.82059,3.2694 -2.23628,1.11239 -4.57356,0.95795 -6.46686,-0.75383 -0.1106,-0.12851 -1.31117,-1.47202 -1.00453,-1.60594 0.0266,-0.0393 0.074,-0.16822 0.0798,-0.11838 0.0794,0.68429 -0.0499,1.42695 -0.14371,2.09725 -0.0444,0.22893 -0.15714,0.4561 -0.12795,0.68834 0.003,0.0267 0.0475,-0.0153 0.0645,-0.0342 0.19756,-0.22267 0.35937,-0.48974 0.57592,-0.68718 0.97596,-0.88983 1.16067,-0.76581 2.46278,-1.18936 1.19336,0.067 2.15678,0.0808 3.07275,1.11537 0.16196,0.18312 0.5663,0.66178 0.34067,0.67988 -0.0672,0.006 -0.0987,-0.10636 -0.14805,-0.15945 -0.7707,-1.94122 -1.15936,-4.05142 -1.41557,-6.15944 -0.12879,-1.27725 -0.29305,-2.61461 0.0723,-3.85883 0.0886,-0.26798 0.21636,-0.52475 0.25596,-0.80793 0.004,-0.0298 -0.007,-0.094 -0.0301,-0.0812 -0.90893,0.50227 -1.35747,0.98131 -2.41958,0.94937 -0.15827,-0.0208 -0.31842,-0.0298 -0.47486,-0.0638 -0.31615,-0.0708 -0.77954,-0.60648 -0.0773,-0.11056 0.84378,0.69573 1.43197,1.59831 1.87135,2.69504 0.84662,2.00181 1.48944,4.10762 1.72501,6.33261 0.14363,1.65681 0.0939,3.27727 -0.23561,4.90696 0.14348,0.21255 0.80364,-0.24382 0.93089,-0.25545 0.12298,-0.0115 -0.21037,0.15104 -0.32293,0.20955 -0.1971,0.10254 -0.70583,0.30495 -0.93462,0.39807 -0.97226,0.23995 -0.94246,0.57049 -1.88846,-0.15085 -0.41648,-0.42269 -0.82117,-0.78855 -1.15639,-1.30757 -0.77615,-1.20169 -1.21435,-2.68149 -1.49438,-4.12821 -0.26661,-1.87645 -0.2887,-3.79913 0.45483,-5.54444 0.15261,-0.34872 0.32423,-0.68758 0.45303,-1.04897 0.0226,-0.0638 0.0264,-0.135 0.0463,-0.20002 0.0156,-0.051 0.10444,-0.13119 0.0597,-0.14665 -0.19298,-0.0674 -0.41178,0.0724 -0.6041,-0.0298 9.09566,-0.0894 8.98666,-14.99288 -0.10901,-14.90358 z"
           inkscape:label="white" />
        <path
           style="display:inline;fill:#000001;fill-opacity:1;fill-rule:nonzero;stroke:#84eb8b;stroke-width:0;stroke-linecap:square;stroke-linejoin:round;stroke-dasharray:none;stroke-opacity:1"
           id="path26-9"
           d="m 141.79095,511.78603 c -1.42177,0.88918 -2.77504,1.93607 -4.02127,3.12888 -0.28626,0.27394 -0.55863,0.5669 -0.83795,0.8503 -0.85427,0.94158 -1.68658,1.92001 -2.38464,3.02476 -0.33397,0.52853 -0.52148,0.88848 -0.82063,1.43345 -0.64048,1.12968 -1.17468,2.32756 -1.67446,3.54662 -0.31094,0.81334 -0.60769,1.63716 -0.84276,2.48485 -0.14994,0.54065 -0.19013,0.75227 -0.31215,1.29819 -0.25953,1.14208 -0.38066,2.31368 -0.44979,3.48911 -0.0364,1.23011 0.0332,2.45918 0.13981,3.6823 0.0728,0.99088 0.22136,1.96819 0.39704,2.94037 0.15874,0.92048 0.36611,1.82698 0.59721,2.72611 0.24297,0.95428 0.54107,1.88677 0.87286,2.80385 0.35197,1.00782 0.82157,1.94311 1.3238,2.85792 0.45024,0.83818 0.9375,1.64687 1.45004,2.4351 0.52507,0.77742 1.08879,1.51869 1.64747,2.26366 0.38404,0.50692 0.78859,0.99109 1.24238,1.41495 0.19463,0.18178 0.54532,0.47636 0.74681,0.64789 0.76659,0.64463 1.57941,1.21088 2.40356,1.75003 0.66535,0.45076 1.39314,0.7431 2.12919,0.99329 0.8638,0.26529 1.75471,0.36697 2.64213,0.4582 0.75225,0.0903 1.50811,0.0899 2.26254,0.0498 0.58713,-0.0393 1.17291,-0.0989 1.75735,-0.17415 0.5425,-0.0493 1.07686,-0.17166 1.6015,-0.33534 0.49995,-0.169 0.97342,-0.4157 1.43212,-0.69823 0.40641,-0.25546 0.81619,-0.50305 1.21562,-0.77305 0.37432,-0.24652 0.75634,-0.47728 1.13752,-0.70923 0.31366,-0.17014 0.63527,-0.32003 0.95483,-0.47472 0.48565,-0.23877 0.93816,-0.55447 1.36432,-0.91254 0.44578,-0.40924 0.79363,-0.9305 1.14134,-1.44582 0.23209,-0.31581 0.48038,-0.61476 0.71384,-0.92955 0.3323,-0.43004 0.58519,-0.92565 0.81611,-1.43394 0.23754,-0.58773 0.45397,-1.18783 0.6494,-1.79607 0.18868,-0.58585 0.35317,-1.1815 0.52633,-1.77362 0.20209,-0.637 0.38864,-1.28014 0.5595,-1.92924 0.18196,-0.68711 0.31829,-1.38802 0.43284,-2.09383 0.0956,-0.64453 0.21014,-1.28496 0.31881,-1.92665 0.13854,-0.79123 0.19838,-1.59578 0.23026,-2.40096 0.038,-1.03748 -0.0193,-2.07224 -0.14868,-3.09845 -0.14016,-0.9962 -0.29984,-1.98754 -0.50602,-2.96832 -0.20759,-1.05736 -0.48613,-2.09157 -0.77683,-3.12131 -0.31798,-1.24356 -0.7655,-2.42855 -1.22652,-3.60732 -0.47071,-1.20576 -0.95716,-2.40306 -1.48479,-3.57682 -0.30542,-0.66288 -0.60641,-1.3326 -0.98173,-1.94748 -0.22074,-0.36161 -0.40542,-0.6146 -0.64425,-0.95577 -0.38855,-0.52624 -0.73644,-1.09409 -1.14313,-1.6025 -0.32336,-0.40426 -0.39647,-0.46133 -0.74974,-0.8234 -0.64884,-0.61749 -1.3604,-1.13676 -2.0702,-1.65319 -0.49918,-0.36959 -0.99942,-0.73795 -1.53918,-1.02438 -0.36214,-0.19226 -0.5496,-0.26232 -0.91996,-0.41917 -0.77252,-0.3136 -1.57964,-0.47022 -2.38856,-0.59017 -0.5827,-0.0834 -1.16668,-0.15391 -1.75089,-0.22118 -0.69594,-0.0894 -1.39323,-0.0409 -2.0858,0.0563 -0.60753,0.0844 -1.20114,0.25099 -1.77913,0.48032 -0.42411,0.19137 -0.85134,0.41705 -1.20185,0.76143 -0.12444,0.12221 -0.23417,0.2635 -0.35127,0.39504 -1.24687,1.53479 0.62651,3.57785 1.87338,2.04306 v 0 c -0.002,-0.01 -0.0123,-0.0208 -0.006,-0.0298 0.14441,-0.17204 0.34679,-0.26351 0.53248,-0.35505 0.40343,-0.16785 0.8225,-0.27363 1.24762,-0.3368 0.50327,-0.0737 1.00957,-0.11572 1.51586,-0.0487 0.56095,0.0647 1.12168,0.13213 1.6812,0.21193 0.62072,0.0909 1.24168,0.20092 1.83628,0.43549 0.26535,0.11036 0.41217,0.16479 0.66878,0.29568 0.45957,0.2343 0.87489,0.56287 1.29937,0.86999 0.59533,0.43291 1.1932,0.8656 1.74456,1.37248 0.2041,0.20331 0.31219,0.2996 0.49625,0.52788 0.39105,0.48498 0.72034,1.03282 1.09414,1.53479 0.13247,0.18809 0.36918,0.5179 0.49518,0.72076 0.32746,0.52716 0.58011,1.10983 0.84552,1.67976 0.50659,1.12481 0.97088,2.27386 1.42284,3.42934 0.21878,0.5593 0.44853,1.11647 0.64186,1.68862 0.10324,0.30552 0.23679,0.76598 0.32691,1.07518 0.0524,0.17969 0.10388,0.35993 0.15587,0.53992 0.27041,0.95756 0.5312,1.91859 0.7229,2.90233 0.18891,0.89163 0.33093,1.79385 0.46047,2.69944 0.11026,0.83671 0.1511,1.68157 0.12314,2.528 -0.0239,0.65679 -0.0722,1.3132 -0.18462,1.9586 -0.11004,0.65003 -0.22607,1.29877 -0.32296,1.9517 -0.0962,0.5981 -0.21119,1.192 -0.36521,1.77415 -0.16269,0.61986 -0.3429,1.23302 -0.53512,1.84147 -0.16556,0.56655 -0.32287,1.13648 -0.50299,1.69721 -0.15457,0.49053 -0.33469,0.97031 -0.51615,1.44817 -0.13813,0.30959 -0.2842,0.6148 -0.48866,0.87375 -0.25826,0.34961 -0.53902,0.67572 -0.78802,1.03446 -0.20484,0.30359 -0.40425,0.6135 -0.64267,0.88372 -0.25372,0.22624 -0.53665,0.40718 -0.82778,0.56 -0.38971,0.18866 -0.78254,0.37031 -1.16131,0.58738 -0.41484,0.25338 -0.83141,0.50348 -1.23818,0.774 -0.37076,0.25189 -0.75334,0.47862 -1.13032,0.71773 -0.28948,0.18083 -0.5871,0.34043 -0.90236,0.45299 -0.39196,0.1308 -0.79638,0.20776 -1.2027,0.2465 -0.52989,0.0685 -1.06097,0.12259 -1.59325,0.15925 -0.63852,0.0355 -1.27823,0.0367 -1.9149,-0.0414 -0.72085,-0.0737 -1.44505,-0.14914 -2.14941,-0.35087 -0.54741,-0.18294 -1.09116,-0.39124 -1.58495,-0.72783 -0.73504,-0.47963 -1.46019,-0.98327 -2.14447,-1.55616 -0.28733,-0.24441 -0.58735,-0.48016 -0.85428,-0.75509 -0.15334,-0.15792 -0.33106,-0.37543 -0.46949,-0.54755 -0.083,-0.10312 -0.16419,-0.20866 -0.24626,-0.31284 -0.51972,-0.69292 -1.04411,-1.38235 -1.53519,-2.10302 -0.47226,-0.72511 -0.92018,-1.46984 -1.33423,-2.24166 -0.42516,-0.77257 -0.82707,-1.55803 -1.12203,-2.41156 -0.29729,-0.81736 -0.56203,-1.64954 -0.77916,-2.50054 -0.21112,-0.8199 -0.40066,-1.64637 -0.54473,-2.48606 -0.15744,-0.86963 -0.29239,-1.74309 -0.35548,-2.62989 -0.0931,-1.05724 -0.1549,-2.11908 -0.13239,-3.18258 0.0559,-0.99195 0.15558,-1.9808 0.37425,-2.94463 0.0913,-0.41341 0.14011,-0.66013 0.25167,-1.0657 0.20481,-0.74461 0.46517,-1.46772 0.73604,-2.18262 0.45416,-1.10979 0.93785,-2.20082 1.52261,-3.22777 0.24596,-0.45048 0.41628,-0.77696 0.68664,-1.21168 0.59385,-0.95485 1.31673,-1.78904 2.04493,-2.60471 0.24158,-0.2471 0.47687,-0.50288 0.72477,-0.74153 1.15411,-1.11092 2.41126,-2.07984 3.73236,-2.90175 1.57126,-1.06226 0.27464,-3.63687 -1.29662,-2.57459 z"
           inkscape:label="outline" />
        <path
           style="fill:#000001;fill-opacity:1;fill-rule:nonzero;stroke:#84eb8b;stroke-width:0;stroke-linecap:square;stroke-linejoin:round;stroke-dasharray:none;stroke-opacity:1"
           id="path27-3"
           d="m 146.74602,526.29203 c -1.30726,-0.57062 -2.6362,-0.2656 -3.75682,0.71234 -0.28123,0.24533 -0.51086,0.56704 -0.7663,0.85053 -1.10256,1.51684 -1.79791,3.37569 -2.05042,5.36893 -0.0496,0.39177 -0.0643,0.78866 -0.0964,1.18305 0.001,1.79851 0.31821,3.55407 1.00483,5.15632 0.4172,0.9736 0.63482,1.24962 1.17179,2.11108 0.31136,0.34881 0.60071,0.72872 0.93408,1.04665 1.01242,0.96555 2.21708,1.53806 3.48672,1.77871 1.05308,0.19972 1.30306,0.1035 2.34856,0.004 1.38376,-0.29212 2.6678,-0.95073 3.68204,-2.14892 0.60546,-0.71528 0.7283,-1.05462 1.17354,-1.90168 0.75045,-1.77353 0.95052,-3.31867 0.68258,-5.30372 -0.17796,-1.31838 -0.38306,-1.81126 -0.76108,-3.05578 -0.65715,-1.84113 -1.54178,-3.56906 -2.80085,-4.90238 -0.2815,-0.29838 -0.57123,-0.59212 -0.89422,-0.82095 -0.38325,-0.27155 -0.80788,-0.44746 -1.21182,-0.67129 -0.40837,-0.10216 -0.81001,-0.25784 -1.22509,-0.3072 -1.34165,-0.16002 -2.55533,0.24533 -3.67166,1.14819 -0.9253,0.74831 -1.15353,1.24131 -1.84838,2.26742 -0.22023,0.4769 -0.4708,0.93517 -0.66061,1.43074 -0.54107,1.41254 -0.84321,3.01717 -0.74587,4.57774 0.0937,1.50179 0.28769,1.75846 0.75837,3.13045 0.27413,0.45505 0.505,0.95305 0.82238,1.36516 1.21369,1.57596 3.11443,2.57358 4.91154,2.28709 0.44189,-0.0703 0.85855,-0.28913 1.28783,-0.43422 0.4694,-0.48742 1.0058,-0.89435 1.40821,-1.46232 0.32123,-0.45312 0.53264,-1.01047 0.73099,-1.55674 0.54183,-1.49223 0.72749,-3.24972 0.59896,-4.8644 -0.0424,-0.53273 -0.15722,-1.0534 -0.23579,-1.58008 -0.34877,-1.15756 -0.44542,-1.78882 -1.11771,-2.76042 -0.9197,-1.32927 -2.30361,-2.1481 -3.76609,-1.80187 -0.50932,0.12011 -0.9575,0.48366 -1.43626,0.7255 -0.38345,0.46915 -0.82731,0.87583 -1.15037,1.40689 -1.14738,1.88602 -1.45174,4.84843 -0.65568,6.99313 0.21454,0.57797 0.56817,1.06507 0.85225,1.59768 0.42136,0.37618 0.78344,0.87586 1.26409,1.12807 1.7182,0.90157 3.3845,0.22087 4.51474,-1.49813 0.80602,-1.22586 0.75762,-1.91476 0.98721,-3.39039 -0.0819,-1.28128 0.0116,-2.23845 -0.70329,-3.33656 -0.33867,-0.5203 -0.74632,-1.10799 -1.28345,-1.24165 -0.77013,-0.19168 -1.61699,-0.0298 -2.34226,0.33934 -0.81106,0.4097 -1.26837,1.83091 -1.62223,2.68849 -0.22823,0.83793 -0.29617,0.98284 -0.42289,1.7577 -0.0224,0.13596 -0.15744,0.37665 -0.0464,0.41159 1.26527,0.39413 2.56421,0.65327 3.86685,0.77901 0.11948,0.01 0.0941,-0.26709 0.15625,-0.39084 0.0321,-0.0642 0.0828,-0.11171 0.12414,-0.16785 -0.99222,1.12589 -0.86903,1.40546 -2.80888,0.18599 -0.2752,-0.17281 -0.37954,-0.64431 -0.3923,-1.01825 -0.0297,-0.86802 0.36364,-1.73394 1.10608,-1.93778 0.34083,-0.0934 0.69547,0.0859 1.04321,0.1287 -0.16098,0.76107 0.41371,0.27185 0.56821,0.47919 0.38274,0.51354 -0.4617,1.2598 -0.69864,1.34546 -0.3521,0.12755 -0.73485,-0.0239 -1.10228,-0.0378 -0.0859,-0.19733 -0.38939,-0.13882 -0.501,-0.3229 -0.21415,-0.35402 0.0185,-0.96489 0.24639,-1.17885 0.36901,-0.34646 0.83574,-0.58009 1.30139,-0.63154 0.30842,-0.033 0.58039,0.26111 0.87059,0.39174 0.0758,0.0878 0.16264,0.16365 0.22725,0.2638 0.0487,0.0754 0.10628,0.15944 0.10805,0.25515 0.0258,1.41584 -0.42476,2.00825 -2.0649,2.25343 -0.0116,0.002 -0.86898,-0.62298 -1.25842,-0.90648 -0.007,0.0479 -0.008,0.19018 -0.0224,0.14454 -0.21917,-0.70292 0.95699,-1.84532 0.97529,-1.85021 0.78129,-0.20688 1.58282,0.34506 2.33178,0.68377 0.12052,0.0542 0.2245,0.48658 0.27444,0.67226 -0.0847,2.25076 -3.31156,2.17283 -3.43123,-0.0957 2.53972,-1.86236 1.84727,-2.59875 3.60475,-0.46021 0.20003,0.24354 0.08,0.87213 -0.0531,1.04931 -0.25849,0.34413 -0.61395,0.56048 -0.92092,0.84076 -0.38591,-0.0298 -0.78538,0.0378 -1.15772,-0.0873 -0.2175,-0.0737 -0.37566,-0.3059 -0.54406,-0.4873 -0.29919,-0.32223 -0.30392,-0.98212 -0.0892,-1.3623 0.18971,-0.3361 0.4961,-0.55027 0.74414,-0.82537 0.68372,-0.152 1.13545,-0.26976 1.65891,0.34411 0.0704,0.0825 0.20422,0.29451 0.18173,0.42813 -0.0524,0.31045 -0.17247,0.5985 -0.25871,0.89778 -0.17415,0.16689 -0.32776,0.37143 -0.52244,0.50143 -0.351,0.23459 -0.87909,0.12107 -1.15211,-0.22654 -0.28624,-0.36391 -0.24663,-0.51247 -0.30029,-0.96848 0.0555,-0.20835 0.0658,-0.44322 0.16638,-0.62577 0.44322,-0.80344 0.96862,-0.81169 1.80173,-0.71881 0.19442,0.0239 0.3701,0.18274 0.51084,0.346 0.35868,0.41583 0.34009,0.5827 0.41188,1.055 -0.0332,0.15715 -0.0263,0.33609 -0.0999,0.47157 -0.41539,0.76518 -1.15486,1.09375 -1.84972,0.64464 -0.33429,-0.2161 -0.42,-0.42623 -0.59201,-0.74693 -0.018,-0.0817 -0.0504,-0.1604 -0.0538,-0.24503 -0.025,-0.62261 0.65601,-0.8482 1.03698,-0.86042 0.27459,-0.01 0.48075,0.13901 0.70513,0.27604 0.0247,-0.01 0.0574,2e-5 0.0736,-0.0239 0.029,-0.0424 0.0302,-0.10407 0.0484,-0.1541 0.036,-0.0999 0.11618,-0.30363 0.17728,-0.38282 0.0178,-0.0239 0.0654,-0.0657 0.0726,-0.033 0.0121,0.0516 -0.0302,0.10082 -0.0452,0.15085 -0.55432,0.43376 -0.50106,0.53818 -1.17854,0.50612 -0.12278,-0.004 -0.23677,-0.0793 -0.35519,-0.11897 2.42835,1.60059 4.30503,-2.54142 1.87668,-4.14199 v 0 c -0.23967,-0.11915 -0.46397,-0.30197 -0.71902,-0.35874 -1.13037,-0.25188 -1.15175,-0.01 -2.18731,0.54704 -0.208,0.25188 -0.44176,0.47616 -0.62394,0.75554 -0.76399,1.17159 -1.10058,2.85727 -0.87394,4.3207 0.0664,0.42906 0.21567,0.83306 0.32349,1.24962 0.58082,0.99071 0.77934,1.66428 1.87846,2.02377 1.38688,0.4536 2.748,-0.39367 3.38589,-1.88868 0.18954,-0.44417 0.24598,-0.95397 0.36893,-1.43094 -0.087,-1.40351 0.0685,-2.00913 -0.88172,-3.13511 -0.69334,-0.8216 -1.73562,-1.03875 -2.64032,-0.67163 -0.42526,0.17281 -0.79741,0.53418 -1.10313,0.93031 -0.25925,0.33562 -0.36487,0.80534 -0.54729,1.20798 -0.12473,1.28435 -0.3359,1.75281 0.3323,2.99888 0.64277,1.19856 1.66789,1.45646 2.81612,1.17633 0.94049,-0.22952 1.20458,-1.25449 1.58415,-2.09353 0.0317,-0.44464 0.14031,-0.89094 0.0951,-1.33383 -0.15066,-1.47585 -1.03534,-2.69382 -2.24035,-3.04064 -0.3829,-0.10999 -0.7974,-0.14302 -1.18059,-0.033 -0.46065,0.1308 -0.85527,0.48879 -1.2829,0.73319 -0.27484,0.5262 -0.638,0.99879 -0.82457,1.57861 -0.12781,0.39697 -0.11796,0.84816 -0.0931,1.27311 0.0771,1.3166 0.76504,2.78793 1.87363,3.2136 0.4687,0.17969 0.98276,0.0533 1.47414,0.0802 0.42282,-0.34596 0.93108,-0.57528 1.26844,-1.03812 0.94164,-1.29196 0.55448,-4.09085 -0.73031,-4.88891 -0.48537,-0.30163 -1.07074,-0.25815 -1.6061,-0.38706 -0.45425,0.32059 -0.97926,0.527 -1.36273,0.96178 -0.37339,0.42338 -0.60787,1.41972 -0.61902,2.04539 -0.007,0.37191 -0.0719,0.792 0.0865,1.11133 0.35026,0.70637 0.6908,1.80409 1.37282,1.8317 0.97086,0.0378 1.70884,-1.11487 2.56327,-1.67225 0.04,-0.29212 0.11201,-0.58019 0.1201,-0.87597 0.0229,-0.84439 -0.17091,-2.23422 -0.90118,-2.63749 -1.5308,-0.84545 -2.43624,-0.48482 -3.17429,0.9095 -0.16982,0.32093 -0.20558,0.71973 -0.30838,1.07963 -0.009,0.36014 -0.0717,0.72407 -0.0257,1.07987 0.2175,1.68392 0.91961,2.69662 2.88934,2.39815 1.02628,-0.15524 1.32964,-1.75516 1.35384,-2.69997 0.008,-0.31438 -0.0445,-0.62704 -0.0667,-0.94056 -0.25995,-1.04565 -0.45939,-2.57331 -1.77129,-2.68867 -2.15685,-0.1898 -3.05005,1.89043 -2.46825,3.86259 0.12552,0.42578 0.35617,0.79491 0.53426,1.19234 0.46236,0.35496 0.84411,0.97467 1.38708,1.0655 1.87882,0.31438 3.05156,-1.39902 2.94883,-3.4619 -0.0274,-0.55015 -0.11929,-1.11305 -0.32134,-1.60727 -0.21778,-0.53273 -0.60647,-0.9359 -0.90971,-1.40383 -0.61895,-0.21194 -1.21476,-0.68397 -1.85684,-0.6352 -0.55154,0.0424 -1.0626,0.45926 -1.48502,0.88897 -0.8753,0.89056 -1.1407,3.00393 -0.69412,4.22922 0.20643,0.56647 0.57782,1.02268 0.86673,1.53406 0.56946,0.23132 1.10755,0.70293 1.70837,0.69376 1.2344,-0.0208 2.15042,-1.2512 2.30858,-2.65414 0.0722,-0.64083 0.0274,-1.46342 -0.37864,-1.88569 -1.92376,-2.00004 -2.23389,-1.16793 -3.56694,-0.0298 -0.14317,0.27067 -0.29903,0.5321 -0.42953,0.81192 -0.0945,0.2027 -0.41703,0.52972 -0.24404,0.63251 1.14779,0.68171 2.45804,0.86588 3.65954,1.39615 0.0541,0.0239 -0.0435,0.27274 -0.0317,0.20478 0.1081,-0.61882 -0.015,-0.0298 0.16633,-0.82882 0.0387,-0.14551 0.14429,-0.28704 0.11584,-0.43564 -0.0156,-0.0825 -0.13854,-0.0298 -0.20736,-0.0426 -0.4426,-0.10407 -0.91996,-0.0838 -1.32676,-0.31828 -0.18182,-0.10483 -0.25036,-0.39368 -0.31023,-0.62592 -0.015,-0.0575 0.0934,-0.15677 0.12118,-0.10635 0.0837,0.1518 0.0749,0.35261 0.1124,0.52868 0.0136,0.14818 0.0383,0.2954 0.0407,0.44417 0.002,0.10216 -0.0767,0.43281 0.0198,0.5592 0.0882,0.11572 0.40831,0.1858 0.35973,0.45975 -0.0126,0.0716 -0.11529,0.0472 -0.17294,0.0689 -0.0827,-0.0575 -0.19095,-0.0812 -0.24825,-0.17377 -0.10298,-0.16613 -0.16257,-0.36863 -0.21129,-0.56718 -0.12825,-0.52332 -0.1105,-0.86575 -0.0188,-1.39994 0.0352,-0.20389 0.11431,-0.39368 0.15498,-0.59574 0.0188,-0.0939 0.0155,-0.19317 0.0229,-0.28914 -0.0282,-0.0563 -0.30475,-0.44887 -0.12469,-0.49015 0.37354,-0.0857 0.65216,0.89428 0.731,1.11958 0.0534,0.26141 0.12769,0.51851 0.1601,0.78517 0.0703,0.57873 0.0531,1.20988 -0.0203,1.78613 -0.034,0.26709 -0.0894,0.52991 -0.15078,0.78966 -0.0458,0.19345 -0.18469,0.36772 -0.17021,0.56818 0.007,0.10101 0.1479,0.0974 0.22182,0.1455 -0.0496,0.0575 -0.0869,0.13615 -0.14888,0.17281 -0.50202,0.29302 -1.28811,-0.12335 -1.68739,-0.49836 -0.12202,-0.11476 -0.22017,-0.26202 -0.33026,-0.39325 -0.23384,-0.49152 -0.32639,-0.58885 -0.40669,-1.17205 -0.14999,-1.08911 0.18181,-2.16101 0.58287,-3.11466 0.38122,-0.65874 0.2876,-0.57019 0.75216,-1.10243 0.45582,-0.52218 0.81485,-0.59928 1.431,-0.52894 0.12224,0.033 0.25395,0.033 0.3667,0.1014 0.17358,0.10197 0.32795,0.24831 0.4779,0.39508 0.85752,0.83924 1.42529,1.99127 1.87269,3.1905 0.3069,0.93991 0.5417,1.66431 0.62842,2.67724 0.016,0.18503 0.0321,0.37239 0.018,0.55802 -0.0274,0.3658 -0.14703,0.67591 -0.25356,1.01267 -0.48765,1.08452 -0.87393,1.48653 -1.89472,1.79914 -0.1775,0.033 -0.35332,0.0819 -0.53239,0.0939 -0.57088,0.0378 -1.28415,-0.0787 -1.81052,-0.36059 -0.36721,-0.19643 -0.62257,-0.45784 -0.93651,-0.74278 -0.12845,-0.19435 -0.2651,-0.38188 -0.38529,-0.58385 -0.6003,-1.00957 -0.92711,-2.16309 -0.99588,-3.40181 0.0121,-0.22446 0.0136,-0.45032 0.0364,-0.67363 0.10792,-1.05892 0.42379,-2.07575 0.96101,-2.92598 0.0595,-0.0915 0.11901,-0.18293 0.1785,-0.27483 -0.002,-0.033 -0.0177,-0.0722 -0.007,-0.10426 0.0185,-0.0558 0.12961,-0.11648 0.12806,-0.12546 -0.007,-0.0378 -0.0815,-0.0298 -0.0815,-0.0689 -9e-5,-0.033 0.0543,0.0115 0.0814,0.0239 2.56359,1.25683 4.03727,-3.11582 1.47368,-4.37264 z"
           inkscape:label="pupil" />
        <path
           style="fill:#f6f6f6;fill-opacity:1;fill-rule:nonzero;stroke:#84eb8b;stroke-width:0;stroke-linecap:square;stroke-linejoin:round;stroke-dasharray:none;stroke-opacity:1"
           id="path29-9"
           d="m 153.39317,541.06636 c 0.0188,0.0466 0.007,0.01 -0.0116,0.11476 -0.0532,0.2945 -0.37747,0.42706 -0.58894,0.55332 -0.21703,0.0367 -0.43136,0.12278 -0.65112,0.1138 -0.57015,-0.0239 -1.07132,-0.32702 -1.34848,-0.84591 -0.099,-0.21522 -0.0537,-0.44215 0.0292,-0.65191 0.27144,-0.48946 0.77525,-0.72211 1.2946,-0.6911 0.4753,0.0953 0.81602,0.44715 0.97458,0.92307 0.0888,0.36128 -0.03,0.48525 -0.23962,0.80505 -0.51767,0.53384 -1.29639,0.6614 -1.91601,0.25337 -0.28751,-0.22803 -0.39453,-0.56513 -0.43004,-0.92846 -0.0108,-0.21134 0.0434,-0.38822 0.13656,-0.57243 0.2654,-0.36995 0.67184,-0.51826 1.08411,-0.56502 0.79164,0.0239 1.30398,0.45446 1.68914,1.21131 0.0889,0.17434 0.0973,0.38366 0.14595,0.57549 -0.27589,-3.21622 -4.54412,-2.80046 -4.26822,0.41564 v 0 c 0.0538,0.25127 0.0561,0.52132 0.16121,0.75325 0.49006,1.08139 1.19879,1.51185 2.26402,1.61154 0.14153,-0.01 0.28391,-0.01 0.42462,-0.0267 0.68371,-0.0909 1.31285,-0.46155 1.76232,-1.01444 0.49721,-0.64511 0.83459,-1.37813 0.88354,-2.22389 -0.003,-0.17434 0.006,-0.3494 -0.01,-0.52325 -0.0741,-0.83367 -0.45845,-1.58185 -1.0229,-2.15257 -0.12464,-0.10578 -0.24083,-0.22415 -0.37395,-0.31743 -0.84745,-0.59502 -1.91059,-0.76592 -2.84431,-0.26619 -0.22447,0.12011 -0.41745,0.29779 -0.62621,0.44624 -0.17094,0.21224 -0.35904,0.41016 -0.51272,0.63693 -0.4779,0.70507 -0.60103,1.69958 -0.54859,2.54083 0.0356,0.19196 0.0555,0.38778 0.10708,0.57528 0.31905,1.16004 1.07732,1.9084 2.13939,2.27833 0.17788,0.0363 0.3533,0.0903 0.53358,0.10827 1.14852,0.11418 2.09235,-0.37681 2.77544,-1.34783 0.086,-0.15467 0.18277,-0.30375 0.25802,-0.46476 0.38437,-0.82316 0.44915,-1.74884 0.25241,-2.63661 -0.051,-0.1667 -0.0892,-0.33844 -0.153,-0.49977 -0.40096,-1.01414 -1.1926,-1.81705 -2.26022,-1.9577 -0.33212,-0.0456 -0.66735,0.0548 -1.00102,0.0823 -0.23826,0.10998 -0.49075,0.19056 -0.71484,0.33066 -0.82851,0.5174 -1.34631,1.44441 -1.58647,2.40791 -0.62968,3.15917 3.56282,4.1081 4.19249,0.94897 z"
           inkscape:label="accent2" />
        <path
           style="fill:#f6f6f6;fill-opacity:1;fill-rule:nonzero;stroke:#84eb8b;stroke-width:0;stroke-linecap:square;stroke-linejoin:round;stroke-dasharray:none;stroke-opacity:1"
           id="path28-6"
           d="m 140.16027,529.41976 c -0.004,0.004 -0.0176,0.0261 -0.0147,0.0156 0.16343,-0.61167 0.80336,-0.65827 1.14636,-0.74558 0.3048,0.14513 0.65673,0.18393 0.91438,0.4355 0.51631,0.50407 0.68943,1.46383 0.40287,2.2791 -0.21958,0.48693 -0.64043,0.65026 -1.02779,0.6549 -0.0974,9.4e-4 -0.19006,-0.0376 -0.28468,-0.0577 -0.48208,-0.19188 -0.66809,-0.87661 -0.69095,-1.52433 0.0266,-0.6161 0.32104,-1.13141 0.68994,-1.5054 0.13511,-0.13134 0.28816,-0.16995 0.4441,-0.20996 0.80382,0.02 0.99114,0.0808 1.40622,0.88616 0.25004,0.71431 0.22534,1.45029 -0.0956,2.18498 -0.14288,0.29968 -0.35022,0.51646 -0.58029,0.67724 -0.41812,0.23327 -0.88386,0.26312 -1.2628,-0.005 -0.0871,-0.0647 -0.16628,-0.14371 -0.2495,-0.21524 -0.43535,-0.52672 -0.70866,-1.46371 -0.42624,-2.28921 0.0367,-0.1077 0.0838,-0.20935 0.12514,-0.3135 0.59743,-1.10434 1.60922,-1.4869 2.42685,-0.83545 0.14928,0.11873 0.25644,0.31016 0.38463,0.46528 0.41242,0.83945 0.41199,1.59768 0.005,2.53989 -0.13515,0.2559 -0.30517,0.47986 -0.51262,0.62274 -0.26635,0.16963 -0.51094,0.12521 -0.78498,0.0994 -0.58409,-0.31309 -0.93425,-0.34977 -1.19309,-1.32271 -0.28302,-1.0607 -0.0257,-1.99911 0.56805,-2.79091 0.0655,-0.0875 0.1472,-0.1488 0.22071,-0.22288 0.86766,-0.68253 1.96535,-0.41842 2.36676,0.70064 0.16434,0.45881 0.12074,0.64057 0.10833,1.133 -0.0478,0.19459 -0.0764,0.39784 -0.14393,0.58435 -0.21285,0.58896 -0.68027,1.09129 -1.15707,1.19067 -0.23522,0.0489 -0.48509,0.0754 -0.70165,-0.0194 -0.27966,-0.12424 -0.49543,-0.40724 -0.74318,-0.61073 -0.0998,-0.25702 -0.2247,-0.49633 -0.29965,-0.77042 -0.12664,-0.46384 -0.004,-1.11624 0.2448,-1.52105 0.0737,-0.12018 0.16538,-0.21928 0.24805,-0.32867 0.12681,-0.0966 0.24427,-0.22622 0.38032,-0.28937 0.6359,-0.29414 1.21166,-0.0965 1.63403,0.51245 0.26061,0.37581 0.24739,0.65836 0.30792,1.14077 -0.009,0.13295 -0.009,0.26672 -0.0288,0.39907 -0.22242,1.50676 -1.4568,1.91655 -2.58275,1.78143 -0.74373,-0.0892 -0.81143,-1.06676 -0.91112,-1.75621 0.01,-0.67746 0.23436,-1.39768 0.7151,-1.78032 0.18046,-0.14351 0.3732,-0.32147 0.57413,-0.32897 0.42447,-0.0158 0.82397,0.17427 1.2361,0.26087 0.17511,0.25588 0.38638,0.47283 0.52544,0.76738 0.22545,0.47821 0.18384,1.06497 0.0249,1.59507 0.0737,-0.10012 -0.21242,0.46372 -0.15515,0.35088 0.0379,-0.075 0.0925,-0.14169 0.11206,-0.22657 0.0512,-0.22281 0.27876,-2.06097 0.29373,-1.4618 -0.0117,0.66922 -0.62222,1.51765 -1.03393,1.68503 -0.50369,0.20483 -1.02274,-0.002 -1.53419,-0.003 -0.18084,-0.21486 -0.38944,-0.39352 -0.54249,-0.64424 -0.22238,-0.36425 -0.29363,-1.01544 -0.14463,-1.49446 0.041,-0.13133 0.10011,-0.25319 0.14996,-0.37962 0.41642,-0.73382 1.05475,-1.06566 1.661,-0.82174 1.26902,0.77754 1.17193,3.32909 -0.2572,4.30123 -0.39571,0.2067 -0.84735,0.20858 -1.19697,-0.0543 -0.11537,-0.0849 -0.21496,-0.20202 -0.32238,-0.30325 -0.0969,-0.1694 -0.2203,-0.31468 -0.29064,-0.50805 -0.37836,-1.04128 -0.16659,-2.07157 0.47983,-2.92737 0.49403,-0.21789 0.98799,-0.43551 1.48198,-0.6533 -2.55212,-0.39466 -3.33327,4.52613 -0.78116,4.92086 v 0 c 0.51153,-0.21512 1.02305,-0.43017 1.53457,-0.64522 0.0718,-0.0929 0.15019,-0.17708 0.2154,-0.27873 0.57687,-0.89728 0.72878,-2.03319 0.3865,-3.02682 -0.079,-0.22952 -0.21954,-0.40543 -0.32917,-0.60865 -0.12989,-0.13026 -0.24976,-0.27923 -0.38979,-0.39034 -0.53634,-0.42702 -1.22107,-0.39738 -1.83752,-0.10828 -0.21144,0.12951 -0.72505,0.40978 -0.8164,0.6715 -0.29991,0.85931 -0.54214,1.77686 -0.60921,2.6931 -0.0294,0.40203 0.44021,1.02276 0.6734,1.25239 0.10147,0.10001 0.2199,0.16752 0.32976,0.25163 0.10396,0.0506 0.20455,0.11235 0.31183,0.152 0.72237,0.27154 1.5123,0.0701 2.16524,-0.58658 0.17021,-0.1709 0.30341,-0.40252 0.45503,-0.60352 0.10822,-0.22982 0.23403,-0.4482 0.32474,-0.68965 0.33927,-0.90252 0.40921,-2.23829 0.0138,-3.03278 -0.17237,-0.3465 -0.43478,-0.59075 -0.65217,-0.88609 -0.5559,-0.034 -1.11374,-0.29938 -1.6678,-0.10164 -0.92591,0.33092 -1.35653,1.84557 -1.45875,2.92387 -0.005,0.12424 -0.0109,0.24828 -0.0135,0.37212 -0.002,0.0522 -0.009,0.19858 0.002,0.14963 0.10968,-0.46821 0.18112,-0.94741 0.29426,-1.41483 0.0166,-0.0686 0.1232,-0.24361 0.0923,-0.18285 -0.15653,0.30665 -0.0923,0.17094 -0.23335,0.51015 -0.27056,0.83246 -0.42241,1.88039 -0.10781,2.66738 0.15044,0.3763 0.40088,0.65618 0.60138,0.98405 0.45692,0.1264 0.89538,0.37791 1.37036,0.38061 0.26228,-4e-5 0.52193,-0.20493 0.76297,-0.37907 0.58341,-0.42195 1.01773,-1.24756 1.19038,-2.07295 0.0533,-0.25628 0.059,-0.51988 0.0886,-0.77975 -0.0769,-0.8352 -0.0802,-2.11312 -0.96303,-2.29058 -1.44489,-0.29055 -2.51435,0.38752 -2.82436,2.06928 -0.04,0.21634 -0.0496,0.43725 -0.0744,0.65569 0.056,0.72887 0.017,1.13596 0.36782,1.73417 0.53655,0.91492 1.35314,1.24453 2.24987,0.91211 0.22833,-0.0845 0.43422,-0.27522 0.65143,-0.41308 0.16794,-0.18923 0.35175,-0.35572 0.50378,-0.5678 0.53465,-0.74646 0.90541,-2.04142 0.72542,-3.00186 -0.0735,-0.39319 -0.23378,-0.73692 -0.35067,-1.10537 -0.29148,-0.27738 -0.53774,-0.65462 -0.87471,-0.83113 -0.94973,-0.49658 -2.17697,0.34609 -2.69408,1.5635 -0.11779,0.27725 -0.17665,0.58697 -0.26468,0.88056 -0.0556,0.74979 -0.13776,1.02257 0.0737,1.73241 0.15148,0.50882 0.56853,1.25808 1.00014,1.38072 0.4556,0.1313 0.94982,0.0525 1.42771,-0.0147 0.12604,-0.0178 0.23369,-0.15694 0.35061,-0.23555 0.099,-0.0957 0.20803,-0.1744 0.29696,-0.28692 0.29772,-0.37676 0.64803,-0.918 0.70841,-1.47466 0.13298,-1.2259 0.004,-1.8078 -0.655,-2.55172 -0.17095,-0.19277 -0.41806,-0.23224 -0.62708,-0.34836 -0.13917,-0.0146 -0.27669,-0.0388 -0.41636,-0.0479 -0.32173,-0.0213 -0.65786,0.12945 -0.96652,0.27687 -0.4945,0.29772 -0.94642,0.68793 -1.27811,1.2927 -0.0718,0.1547 -0.15384,0.30181 -0.2155,0.46311 -0.37377,0.97812 -0.30946,2.02318 0.10166,2.84723 0.38509,0.49092 0.47758,0.74481 1.05549,0.89364 0.83601,0.21455 1.64678,-0.34562 2.16758,-1.29025 0.066,-0.15289 0.13964,-0.30125 0.19793,-0.45943 0.39451,-1.07107 0.29796,-1.88461 -0.0701,-2.88228 -0.0636,-0.17248 -0.19061,-0.28258 -0.28587,-0.42407 -0.11126,-0.10362 -0.21543,-0.22109 -0.33372,-0.31093 -0.55341,-0.42048 -1.23427,-0.39993 -1.86267,-0.0809 -0.48367,0.30756 -0.92527,0.71358 -1.23378,1.32562 -0.33685,0.71965 -0.53432,1.50712 -0.4071,2.31103 0.0344,0.2177 0.10557,0.41658 0.15823,0.62521 0.0746,0.15395 0.1402,0.3168 0.224,0.46136 0.22816,0.39331 0.64255,0.78513 1.02034,0.88381 0.23851,0.0626 0.48917,0.0565 0.73392,0.0841 0.41663,-0.0894 0.81727,-0.25472 1.19159,-0.5619 0.10153,-0.0943 0.20798,-0.1788 0.30457,-0.28254 0.56841,-0.61038 0.89723,-1.47377 0.98248,-2.39458 0.0126,-0.60122 0.0529,-0.8597 -0.12837,-1.46267 -0.24018,-0.79888 -0.70626,-1.27292 -1.26143,-1.63462 -0.54819,-0.19748 -0.70032,-0.33498 -1.32648,-0.18967 -0.75233,0.17516 -1.36079,0.80957 -1.85656,1.58769 -0.10115,0.20696 -0.21679,0.40397 -0.30369,0.62155 -0.48178,1.20593 -0.51932,2.79236 0.25239,3.67159 0.28868,0.32859 0.70645,0.40026 1.05974,0.60017 0.29394,-0.0505 0.59087,-0.0553 0.88177,-0.15165 0.17581,-0.0582 0.34148,-0.18378 0.5021,-0.30656 0.55183,-0.42214 0.98361,-1.07263 1.28997,-1.80799 1.26362,-3.21865 -1.968,-5.1697 -3.23163,-1.95101 z"
           inkscape:label="accent1" />
      </g>
      <path
         style="fill:#2e141d;fill-opacity:1;stroke:#e5a8b7;stroke-width:0;stroke-linecap:square;stroke-linejoin:round;stroke-dasharray:none;stroke-opacity:1"
         id="path2"
         d="m 117.98394,570.05505 c -2.29806,0.42822 -4.63757,0.54945 -6.96952,0.61138 -2.95194,0.0245 -5.89366,-0.24738 -8.82795,-0.53636 -1.08797,-0.10857 -2.17474,-0.22976 -3.264807,-0.31593 -0.99537,-0.0584 -1.85509,0.0925 -2.57276,1.20681 -0.40496,0.62878 -0.27244,1.48468 -0.23322,2.23155 0.0144,0.275 0.52226,0.96322 0.70826,1.23171 0.72122,1.03708 1.4207,2.09741 2.29649,3.0151 0.911037,0.95463 1.646157,1.55267 2.644307,2.42162 2.6887,2.1976 5.66964,4.02858 8.81812,5.49027 0.5584,0.25923 1.12877,0.49186 1.69315,0.73778 2.27827,0.93319 4.64456,1.63181 7.0445,2.17095 0.41769,0.0928 0.83935,0.16507 1.25933,0.24619 3.47158,0.6694 4.41825,-4.24016 0.94667,-4.90956 v 0 c -0.37169,-0.0716 -0.74475,-0.1358 -1.11474,-0.21609 -2.09275,-0.46554 -4.15555,-1.07477 -6.14491,-1.87804 -0.4951,-0.21395 -0.9954,-0.41624 -1.4853,-0.64186 -2.75982,-1.27099 -5.37659,-2.86342 -7.73925,-4.77556 -0.60561,-0.52392 -1.55041,-1.31414 -2.13547,-1.91115 -0.77277,-0.78854 -1.35944,-1.72824 -1.99258,-2.62528 -0.0546,-0.0755 -0.1404,-0.31671 -0.16396,-0.22652 -0.0319,0.12206 0.14032,0.22958 0.1303,0.35533 -0.0529,0.66353 0.0752,1.4331 -0.31583,1.97178 -0.895117,1.23311 -1.272137,1.09391 -2.106717,1.08697 -0.0236,-2e-4 0.0472,0.002 0.0708,0.003 1.05771,0.083 2.111927,0.20332 3.167677,0.30732 3.14273,0.30931 6.29396,0.59389 9.45558,0.55852 2.65875,-0.0757 5.3279,-0.21883 7.94352,-0.73465 3.44703,-0.78612 2.33529,-5.66095 -1.11174,-4.87483 z" />
    </g>
  </g>
</svg>
